<?xml version="1.0" encoding="UTF-8"?><svg id="Layer_1" xmlns="http://www.w3.org/2000/svg" viewBox="0 0 576 288.12"><defs><style>.cls-1{fill:#fff;}</style></defs><g><path class="cls-1" d="m115.53,151.93c4.18,3.74,5.76,8.64,6.19,14.11.14,1.58.29,3.17.29,4.75-.14,10.95-4.46,20.16-16.13,24.05-3.6,1.15-7.2,1.58-10.8,2.16-3.17.58-6.34.43-9.36.43h-39.6q-2.3,0-2.3-2.3v-92.31q0-2.02,2.16-2.02c14.69,0,29.52-.14,44.21,0,6.34,0,12.53,1.01,18.43,3.46,6.77,2.59,11.09,7.63,13.1,14.54,2.59,9.94,1.44,19.01-5.33,27.07-1.15,1.3-2.59,2.3-3.89,3.6.86,1.01,2.16,1.58,3.02,2.45Zm-69.41-9.94c0,6.62.14,13.39.14,20.16,0,1.3-.29,2.59.58,3.74.29.29.29.72.14,1.15-1.01,1.3-.43,2.74,0,4.03.43,1.15.86,2.16.58,3.31-.14.72.14,1.3.58,1.73.14.29.29.72.86.58.43-.14.29-.58.29-1.01-.14-1.87-.58-3.74-.29-5.62.14-2.02-1.58-3.6-.43-5.62-1.3-2.59-.43-5.33-.72-8.07-.43-3.17-.86-6.34-.72-9.65.14-1.87,0-3.89,0-5.9,0-.58,0-1.15-.72-1.3-.43.72-.29,1.58-.29,2.45Zm3.46,45.94c.14-3.46-2.02-6.34-2.16-9.79,0-.29-.14-.43-.43-.29-.14,0-.43.14-.43.29-.29.43-.29.72,0,1.15.43.72.43,1.58,0,2.3-.29.58-.29,1.01,0,1.58.72.86.72,1.87.58,2.74-.29,2.3.72,4.18,1.58,6.19.14.43.43.86,1.01.58.43-.14.58-.58.43-1.15-.29-.72-.86-1.3-.43-2.3.14-.29-.14-.86-.14-1.3Zm-2.3-66.1c-1.01,1.3-.14,2.02.58,2.74-.29-.86,0-1.73-.58-2.74Zm3.31-16.27c.29-.29.14-.86-.29-1.01h-.58c-.43.29-.58.72-.43,1.15.43.86.58,1.73,1.73,2.59.14-1.15-1.01-1.87-.43-2.74Zm2.88,11.52c0,.29.29.43.58.29.43,0,.43-.29.29-.58-.29-1.44-1.15-2.74-.58-4.18.14-.58.14-1.15-.43-1.3-.72,0-.86.58-.86,1.15v.72c0,1.3.72,2.45,1.01,3.89Zm-.58-7.34c.14.14.29.29.58.14.58-.72.72-1.3.29-2.16q-.14,0-.43-.14c-.58.72-.86,1.3-.43,2.16Zm0-6.34c-.29.72-.29,1.3.58,1.87.29-.86.29-1.44-.58-1.87Zm2.45,20.45c.29.43.58.72,1.15.58.29-.14.58-.43.72-.86.14-.43-.29-.58-.72-.72-.58-.14-.58-.58-.43-1.15.29-1.58.14-1.58-1.87-1.44.29,1.44.58,2.59,1.15,3.6Zm.43,68.84c-.29-.14-.58.14-.58.43-.14.29.14.58.43.58s.43-.29.58-.58c0-.29-.14-.43-.43-.43Zm.58-84.39c0,.43.43.58.72.58.58.14,1.01-.14,1.01-.72,0-.43-.43-.58-.72-.58-.43.14-1.01,0-1.01.72Zm1.58,2.74c0-.29-.29-.43-.43-.43-.43,0-.72.14-.58.43,0,.29.29.43.58.29.14,0,.43-.14.43-.29Zm-.58,74.17c.14.86.29,1.58.43,2.45,0,.14.14.43.43.29.29,0,.43-.14.43-.43,0-.86-.29-1.73-.72-2.45-.29.14-.43.14-.58.14Zm3.46-52.28c0-1.44-.29-2.74,0-4.18-.72,1.3-1.15,2.74,0,4.18Zm.14,7.06c.58.86.72,1.58-.14,2.3-.14,0-.14.14-.29.29-.29.72-.14,1.44.43,2.16l.29.14c.86-.43.14-1.15.43-1.58.14-.29.14-.43.14-.72,0-2.02.86-4.03-1.15-5.9-.58,1.3-.29,2.3.29,3.31Zm-.43,32.11c.86.29,1.58,0,2.88.14q-1.58-1.3-2.88-.14Zm.43-10.94c-.14.29,0,.72.14.86.14.43.29,1.01.86,1.01.58-.14.72-.58.72-1.01.14-.86.14-1.87.29-2.74.14-.58,0-1.15-.86-1.44-.72,1.01-.43,2.3-1.15,3.31Zm.86,5.18c-.14-.14-.58-.43-.72-.14-.29.43-.14.72.14,1.01.43.29.86.58,1.44.29.14-.72-.43-1.01-.86-1.15Zm1.01,13.39c.58,1.15.29,2.02-.58,2.88-.29.29-.86.43-.43,1.15.58.29,1.15,0,1.73,0,.72,0,1.15-.43,1.01-1.15-.43-1.58-.58-3.17-1.44-4.61-.86.58-.72,1.15-.29,1.73Zm-.14-5.62c-.14-.14-.29.14-.43.29-.14.43,0,.72.29,1.01.29.14.58-.14.72-.43,0-.43-.14-.72-.58-.86Zm1.73,14.26c.86,0,1.15-.58,1.15-1.3.14-1.15-.58-2.3-1.44-2.3-1.15,0-.86,1.01-1.01,1.58,0,1.58.29,2.02,1.3,2.02Zm1.15-45.8c0,1.3.43,1.73,1.58,1.58h23.47c.72,0,1.44-.14,2.02.14,1.87.72,3.02-.29,4.03-1.44,3.74-4.61,4.46-10.08,3.74-15.7-.29-2.02-1.44-3.74-3.02-5.18-3.02-2.59-6.48-3.6-10.22-3.74h-20.02c-1.15,0-1.58.43-1.58,1.58.14,3.75,0,7.49,0,11.23s.14,7.78,0,11.52Zm1.58,17.71c-1.15,0-1.58.43-1.58,1.58.14,5.04,0,10.22,0,15.27,0,1.58.14,1.58,1.73,1.58h11.38c3.89,0,7.78.29,11.67-.14,6.48-.58,9.07-3.17,9.65-8.35.43-4.46-.86-7.06-4.9-8.78-1.87-.72-3.75-1.3-5.76-1.15-3.46.14-6.77,0-10.22,0h-11.95Zm2.3,27.65c.29.72.58,1.44.58,2.16-.14,2.02.43,3.46,2.45,4.03.29,0,.58.58,1.01.29.43-.43.14-1.01-.14-1.3-1.58-1.01-1.44-2.88-2.3-4.32-.43-1.01-.29-2.45-1.15-3.6q-.72,1.58-.43,2.74Zm2.02-38.88c-.14-.14-.43-.29-.58-.29-.72.29-1.01.72-.72,1.58.72-.14,1.44-.43,1.3-1.3Zm.43-44.64c-.14-.43-.29-.86-.86-.72-.29,0-.14.43-.29.72-.14,1.44.58,2.74.29,4.18-.14.43-.43,1.01.29,1.01.58.14.86-.43.86-1.01s-.14-1.15-.29-1.87v-2.3Zm.58,8.21c-.14-.43-.29-.86-.72-.58-.43,0-.58.43-.43.86.58.72.43,1.73,1.01,2.74.72-1.15.58-2.16.14-3.02Zm1.3,38.02c-.43.14-1.3.29-1.01,1.01.29.58,1.01.29,1.44,0,.43-.14,1.01-.43.72-1.15-.43-.43-.86,0-1.15.14Zm3.74-37.3c-.29.29-.43.43-.14.72s.72.29,1.15.14c.72-.58,1.3-1.3,1.15-2.3-.14-1.01-.58-2.16-2.3-1.87q1.3,1.73.14,3.31Zm13.83-6.91c.14-.29-.29-.86-.43-1.3-.14-.29-.43-.43-.72-.43-.29.14-.43.43-.58.72-.43,1.73.72,3.31.72,5.04,0,.14.58.43,1.3.29-.29-1.58-.86-2.88-.29-4.32Zm1.15,77.05c0-.43-.14-.72-.58-.72-.14,0-.29.29-.29.43.14.43,0,.86.43.86s.58-.29.43-.58Zm.29,10.37c0,.29.14.72.43.58.43,0,.72-.43.58-.72-.14-1.01-.43-1.87-.86-3.31-.86,1.44,0,2.45-.14,3.46Zm.58-82.81c0,.43.14.86.58.72.43-.14.43-.43.43-.72-.14-.86-.14-1.73-.29-2.59-.29-1.58,1.01-.29,1.3-.58q-.43-1.87-2.45-1.58c.14,1.58.29,3.17.43,4.75Zm1.73,3.17c-.14-.43-.43-.58-.86-.43-.43.14-.58.58-.43,1.01.29.58.72,1.01.58,1.87,0,.43.43.72,1.01.72.29-.14.43-.58.43-1.15-.14-.58-.43-1.3-.72-2.02Zm2.02,38.45c-.14,1.87.86,3.6.72,5.47,0,.72.43,1.73,1.58,2.45.14-1.58.43-2.88-.14-4.18-.86-1.73-1.15-3.46-1.44-5.18-.14-.86-.43-1.58-1.73-1.87.58,1.3,1.01,2.3,1.01,3.31Zm.14,35.14c-.14-.29-.43-.43-.72-.29-.43,0-.43.29-.29.72.14.43.14,1.15.86,1.44.72-.58.72-1.3.14-1.87Zm.29-3.02c-.14-1.15-.43-2.16,0-3.31.14-.14,0-.43-.14-.58-.14-.29-.29-.58-.58-.58-.29.14-.43.29-.43.58-.14,1.44-.29,3.02.58,4.46.43-.14.72-.29.58-.58Zm.72-35.86c.14-1.44,0-2.3-.72-3.46-.43,1.44,0,2.16.72,3.46Zm.14-41.33c0,.29.29.43.58.29.43-.14.72-.43.58-1.01,0-.14-.14-.29-.43-.29-.43.14-.72.43-.72,1.01Zm5.62.58c-.86.43-2.02.29-2.45,1.01-.29.86-.14,1.87-.29,2.88,1.15,0,.29-1.73,1.44-1.3,1.01.29.43,1.3.72,1.87,0,.14.14.14.58.58.43-1.87.43-3.31,0-5.04Zm-.72,81.66c0,.29.14.43.43.43.29.14.43-.14.43-.29.14-.86.29-1.73-.29-2.74-.72,1.01-.72,1.87-.58,2.59Zm3.75-75.32c.14-.58-.14-.86-.72-1.01-.29,0-.58.29-.58.58.14.43.29.86.86,1.01.43,0,.43-.43.43-.58Zm-.43,3.89c-.43,0-.58.29-.58.72,0,.14.14.58.14.58.43-.14.58-.43.72-.86-.14-.14-.14-.43-.29-.43Zm-.43,4.9c1.58.58,3.31.72,3.89,2.74,0-1.73-.58-3.17-.72-4.9-.43,1.73-1.73,2.02-3.17,2.16Zm.72,5.18c-.43.43-.29,1.01,0,1.44.43.58,1.01,1.15,1.73.86.58-.29,1.44-.43,1.44-1.3.14-.72-.58-.58-1.15-.72-.43-.14-.86-.29-1.44-.58-.14.14-.43.14-.58.29Zm.43,55.88c.14,1.15-.29,2.02.14,3.17q1.44-1.87-.14-3.17Zm.43-3.31c-.43.58-.43,1.15-.14,1.73,0,.14.29.29.43.14.58-.29.72-.86.72-1.3s.14-.86-.14-1.15c-.43,0-.58.29-.86.58Zm1.3-17.43c.14-.43.29-1.01-.29-1.44h-.43c-.58.43-.86.86-.86,1.44.14.58.29,1.15,1.01,1.44.58-.43.29-1.01.58-1.44Zm1.44-27.65c-.14-.72-1.01-1.3-.72-2.3,0-.43.29-1.01-.43-1.01-.58,0-1.01.58-.86,1.15.29,1.01.72,2.02,1.01,3.02.14,0,.29.14.43.14.58,0,.72-.43.58-1.01Zm-.86,3.31c-.58.14-1.15.58-1.15,1.15,0,.72.58.72.86.72.72,0,1.15-.43,1.15-1.3-.29-.14-.14-.86-.86-.58Zm-.86,13.97c0,.29.29.58.58.43.58,0,.72-.58.72-1.15,0-.14-.29-.29-.58-.29-.43.14-.72.43-.72,1.01Zm3.74-25.63c-.14,0-.29,0-.43.14,0,.29.14.58.43.58s.43,0,.58-.14c0-.43-.29-.58-.58-.58Zm.29-10.95c.14,0,.29,0,.43-.14.43-.58.14-1.01-.58-1.58-.29.72-.29,1.3.14,1.73Zm.43,17.28s-.14.14-.14.29c-.14.43,0,.72.43.86l.29-.29c0-.43-.29-.72-.58-.86Zm1.01-13.97c-.43,0-.58.29-.72.72,0,.43.14.72.58.86.43,0,.58-.43.72-.86,0-.29-.14-.72-.58-.72Zm0-1.73c.14.29.43.43.72.43s.58-.14.58-.58c-.14-.29-.43-.29-.86-.29,0,.29-.58-.14-.43.43Zm.72,4.9c-.14.58-.58,1.3.29,1.58,1.01.29.43-.86.72-1.3.14-.29.29-.72-.14-1.01-.58,0-.72.29-.86.72Z"/><path class="cls-1" d="m158.29,197.58c-6.34-.14-12.67,0-18.87-.14q-1.58,0-1.73-1.73v-92.02c0-3.17-.29-2.88,3.02-2.88h16.56c2.59,0,2.59-.29,2.59,2.45v91.16c0,.43-.14,1.01,0,1.58.14,1.3-.58,1.58-1.58,1.58Zm-15.55-29.09c.14-.29.14-.72-.14-.86-.43-.14-.72.29-.72.72-.14.29,0,.58.29.72.43,0,.58-.29.58-.58Zm-.58-59.19c-.29.14,0,.72.43.86.72.29,1.3,0,1.87-.58.43-.43.29-1.01-.14-1.58-.29-.29-.58-.86-1.44-.72-.29.58.14,1.58-.72,2.02Zm2.74,8.5c-.58,0-.72.58-.72,1.01,0,.72.14,1.3,1.01,1.3.43,0,.58-.58.72-1.01-.14-.58-.29-1.3-1.01-1.3Zm.72-13.25c-.86,0-.72.58-.86,1.01-.14.29,0,.58.43.72.72,0,.72-.58.86-1.01-.14-.29-.14-.72-.43-.72Zm.14,28.51c-.14-.14-.43-.29-.58-.29-.43,0-.58.43-.43.72.43,1.15,0,2.45.58,4.03,1.3-1.87,1.3-3.17.43-4.46Zm.14,34.85c-.43,0-.72.58-.86,1.01-.14.58,0,1.15.43,1.58.14.14.58.14.72.14.43-.43.29-1.01.29-1.58-.14-.43.29-1.15-.58-1.15Zm-.29-12.67c-.58.14-.58.58-.58.86,0,.43.14.86.58.72.43,0,.72-.43.72-.72-.14-.43-.29-.86-.72-.86Zm.14,23.19c-.14,0-.43.14-.43.43,0,.43.86,1.3,1.15,1.15.14-.14.14-.29.29-.43-.14-.72-.29-1.15-1.01-1.15Zm1.87-64.66q-1.01-.86-2.02-.86.72,1.15,2.02.86Zm-1.15,58.32c-.43,0-.58.29-.58.58,0,.58,0,1.15.86,1.15.29,0,.43-.29.58-.72-.14-.43-.29-.86-.86-1.01Zm-.14-12.82c0,.29,0,.72.29.86.43.14.72-.14.86-.43.29-.72.58-1.3.29-2.3-.86.58-1.3,1.01-1.44,1.87Zm.86-7.49c0,.43.29.43.58.43.29-.14.58-.29.43-.72,0-.29-.29-.29-.58-.29-.29.14-.58.29-.43.58Zm3.02,34.42c0-.29-.14-.58-.43-.58-.43,0-.58.43-.58.86,0,.29.14.58.43.58.43-.14.58-.43.58-.86Zm.14-69.7c-.43-.14-.72.14-.72.58s.29.58.72.58.58-.14.58-.43c.14-.43-.14-.72-.58-.72Zm1.73-8.35c-.14-.29-.43-.43-.72-.43-.29.14-.58.43-.43.72.29,1.3.43,2.45,0,3.75-.14.14.14.58.43.58.43,0,.72-.14.72-.43.29-.72.43-1.44.58-2.3-.14-.58-.43-1.15-.58-1.87Zm.86,16.71v4.75c0,1.15,0,2.16-1.01,2.88-.43.29-.58.86-.29,1.3.72,1.3.86,2.59.29,4.18-.29.58.43,1.73,1.15,1.58.72,0,.72-.72.72-1.3v-3.46c0-.58-.14-1.3.14-1.87,1.15-2.74.58-5.47.72-8.35,0-.72,0-1.44-1.01-2.02-.86.58-.72,1.44-.72,2.3Zm-.43,55.3c0,.14,0,.43.14.43.29,0,.43-.14.58-.43,0-.29,0-.43-.29-.58-.29,0-.43.29-.43.58Zm4.18-2.74c0-.29,0-.58.14-.72,1.3-1.58-.14-3.31,0-5.04,0-.29-.29-1.01-.58-1.15-1.3-.43-1.73-1.3-1.73-2.59,0-.29-.29-.72-.72-.72-.58,0-.72.43-.86.86,0,1.15-.14,2.3-.14,3.46,0,.58.29.72.86.43q1.58-.43,2.02.86c.14.58.14,1.15,0,1.73-.29,1.87-.29,3.75.14,6.05q1.01-1.58.86-3.17Zm-3.46-2.74c-.43,0-.43.29-.43.58s0,.72.43.72.43-.29.58-.72c-.14-.29-.14-.72-.58-.58Zm.29-54.29c0,.29.29.43.58.14.14,0,.43-.29.43-.43-.29-1.15,0-2.45-1.01-3.74-1.01,1.58-.29,2.88,0,4.03Zm2.45-5.04c0,.58-.14,1.44.72,1.44.58-.14.72-.72.58-1.3-.29-1.3-.14-2.45,0-3.6.14-1.01.14-1.87,0-2.74,0-.72-.14-1.58-1.15-1.3s-1.3.72-1.01,1.73c.43,1.73,1.15,3.31,1.01,4.61,0,.72-.14,1.01-.14,1.15Zm-.14,42.34c.29,1.01.58,2.02.14,2.88-.43,1.44.29,1.58,1.44,1.87v-4.18c-.14-1.3-1.01-2.3-1.15-3.46-.86.86-.86,1.87-.43,2.88Zm1.44-10.66c.43-.72.29-1.44,0-2.45q-1.15,1.44,0,2.45Z"/><path class="cls-1" d="m199.91,179.87c2.88.72,5.9,1.3,8.93,1.15,3.46-.14,7.06.14,10.51-.14,2.74-.29,5.33-.86,7.92-2.02,4.32-1.87,4.46-9.65,1.3-11.95-1.15-.86-2.45-1.44-3.89-1.73-4.61-.72-9.22-.72-13.97-.86-4.32-.29-8.64-.14-12.96-.72-2.88-.43-5.76-1.15-8.5-2.16-6.34-2.45-10.37-7.06-12.82-13.25-1.58-4.18-2.3-8.5-2.45-12.96-.14-2.88-.43-5.62-.29-8.5.58-5.47,1.58-10.66,4.61-15.41,2.45-3.89,5.9-6.48,9.94-8.21,3.17-1.44,6.48-2.16,9.94-2.88,6.91-1.3,13.83-1.44,20.74-1.01,6.05.29,12.1.86,18,2.59,3.6,1.01,6.91,2.45,9.79,5.04,3.89,3.46,5.91,7.92,6.48,13.11.14,1.87.43,3.74.43,5.62,0,3.74-.43,7.49-1.3,11.09-.14.72-.43.86-1.15.86-.43,0-.86.14-1.3.14h-16.99q-2.74-.14-2.45-2.59c.14-2.3.29-4.46.29-6.62-.14-6.77-3.74-9.07-9.07-9.94-5.62-1.01-11.23-1.01-16.85.29-3.89.86-7.34,3.46-7.92,7.34-.72,4.9-.58,9.79,1.3,14.4,1.3,3.02,3.89,4.9,7.2,5.04,6.77.14,13.54.72,20.31,1.01,4.61.29,9.22.72,13.68,2.45,6.34,2.3,9.94,6.62,11.23,13.1,1.01,5.76.86,11.38,0,17.14-1.44,7.92-5.9,13.54-13.68,16.42-5.76,2.3-11.81,3.6-18,3.75-5.04,0-10.08.29-14.98-.14-8.5-.86-16.71-2.45-24.05-6.77-2.02-1.15-3.74-2.45-5.33-4.03-.58-.58-.72-1.15-.29-1.87,3.02-5.04,6.05-10.08,9.22-15.41,4.46,5.18,10.37,7.2,16.42,8.64Zm-17.86-49.4c.29-.29,0-.86-.29-.86-.43-.29-.58.14-.58.58,0,.58-.43,1.01-.72,1.44-.43.72-.43,1.3.29,2.16.58-1.15.72-2.3,1.3-3.31Zm-.43,8.93c0-.14-.14-.29-.43-.29-.14,0-.43.14-.43.43.14.14.29.29.58.29.14,0,.29-.14.29-.43Zm3.46,10.37c-.43-.86.14-1.87-.43-2.88q-1.73,2.45.43,2.88Zm-1.58-37.3c-.29,1.01.14,1.73.58,2.74.86-1.3.72-2.16-.58-2.74Zm1.15,33.84c1.01-1.58.29-2.88-.58-4.18-.58,1.44-.29,2.88.58,4.18Zm-.72-26.07c-.14.43.14.58.43.72.29,0,.43-.29.43-.43,0-.29,0-.58-.43-.58-.14,0-.43.14-.43.29Zm.43-3.6c-.14.14-.29.29-.43.58,0,.14.14.43.43.43.43,0,.43-.43.43-.72,0-.14-.14-.43-.43-.29Zm1.73,71.43c-.29.14-.43.43-.29.72,0,.43.29.43.58.43.43,0,.58-.14.58-.58-.14-.29-.43-.72-.86-.58Zm2.88-60.34c.58.43,1.01,0,1.01-.58,0-.43,0-1.01-.43-1.3-.72-.43-1.44,0-2.16.58.43.58,1.01,1.01,1.58,1.3Zm-1.01-11.23c.29.29.43.43.72.43.58-.14.72-.58.58-.86-.43-.86-.58-1.87-1.58-3.17-.14,1.58-.43,2.59.29,3.6Zm1.87,29.95c-.43,0-.72.29-.72.72-.14.29.14.58.43.43.43,0,.72-.29.72-.72,0-.14-.14-.43-.43-.43Zm3.02,8.35c.58-.14.72.58.72,1.15s-.29,1.01-.58,1.58c-.29.86.29,1.44,1.01,1.73.29.14.86.14.86-.43-.14-1.58.29-3.17-.14-4.61-.14-.72-.58-1.3-1.15-1.01-1.44.72-2.59,0-3.6-.58-.29-.29-.58-.14-.86.43,1.3.29,2.02,1.87,3.74,1.73Zm-2.88,33.12c-.14.29-.14.72.14,1.01,1.01.86.58,1.73.14,2.74-.29.58-.14,1.3.58,1.73.29.29.72.43,1.01.29.72-.43.29-1.15.29-1.73,0-1.87-.43-3.89.14-5.62.43-1.58,0-2.3-1.15-3.6-.43,2.02-.43,3.6-1.15,5.18Zm2.16-62.36c0,1.3-.14,2.74-.14,4.03.14,2.3-.86,4.46.14,6.62.14.43,0,1.01-.14,1.58,0,.58-.86.58-1.3,1.15,1.44.72,2.16,1.87,2.74,3.02.43.72.43,1.44,0,1.87-.58.58-.86,0-1.44-.29-.58-.43-1.01.29-1.3.86-.14.43,0,1.01.58,1.01,1.01,0,1.58.29,1.87,1.3.14.43.14,1.01.86,1.01.58-.14.43-.72.43-1.15.14-.58.14-1.15.29-1.58.58-1.58.14-3.17-.58-4.18-1.01-1.3-1.01-2.45-.72-3.74.14-.72,0-1.3-.29-2.02-.29-1.3-.43-2.74.29-4.03.43-.43.58-.86.14-1.44-.86-1.01-.58-1.73.43-2.45.29-.43.43-.86.29-1.3-.72-1.01-.14-1.44.43-2.16.72-.58,1.01-1.44-.43-1.73-.86-.14-1.58-1.15-1.01-1.87.72-1.01.43-1.87,0-2.74-.43-.72-.29-1.44-.29-2.3v-7.92c-.14-.58.14-1.44-.58-1.87-.72.58-1.01,1.3-.72,1.87.72,1.73.43,3.02-1.44,3.89,1.58.58,1.73.58,1.01,2.02-.29.86.14,1.58.29,2.16.43,1.44.86,2.74.29,4.03-.14.29-.14.72-.14.86.58,1.15,0,1.73-1.3,2.3,1.87.72,1.87,1.87,1.73,3.17Zm2.59,24.77c0-.29-.14-.72-.43-.58-.58,0-.72.43-.58,1.01,0,.29.29.43.58.43.43-.14.58-.43.43-.86Zm.14-38.88c0,.58.29.86.72.86.43.14.72-.14.72-.58-.14-.43-.43-.72-1.01-.72-.29,0-.43.14-.43.43Zm.29-6.77s-.14.43-.14.58c0,.43.14.72.58.72,0,0,.14-.29.14-.43,0-.43-.14-.86-.58-.86Zm1.87,13.25c-.58-1.3-.29-2.59-1.87-2.74.29.86.43,1.87,1.87,2.74Zm.72,26.5c-.29-.29-.58-.43-.86,0-.29.29-.29.72,0,1.01.72.58,1.58.86,2.45,1.01-.29-1.01-1.01-1.44-1.58-2.02Zm3.74,44.93c-1.15.43-1.58,1.3-1.58,2.02,0,1.15,1.44,1.44,2.02,2.45.86-1.73-1.01-2.74-.43-4.46Zm7.34,6.34c-.14-.43-.29-1.01-.58-1.44-.43-.72-2.16-.86-2.88-.14-.14.14-.29.43,0,.58.86.72,1.87,1.3,2.59,1.87.72,0,1.15-.29.86-.86Zm-1.3-9.65c-.29-.72-.72-1.87-1.44-1.73-1.15,0,0,1.01-.29,1.73-.14.29,0,.72,0,1.01.14.86.14,1.73,1.15,1.73,1.3-.14.29-1.01.43-1.58,0-.43.29-.86.14-1.15Zm.58-36.29c-.43-.14-.72.29-.86.86-.14,1.3,1.01,2.45.43,3.74-.14,0,.14.29.14.29,1.15-.29,1.3.72,1.58,1.3.14.29.43.58.72.29.29-.14.43-.43.43-.72,0-.43-.14-.86-.43-1.15-.72-.58-.58-1.3,0-1.87,1.3-1.3.72-2.3,0-3.89-.43,1.01-1.01,1.58-2.02,1.15Zm-.14-39.89c.43.14,1.01,0,1.15-.43.14-.86.43-1.58,1.15-2.16.14-.29.14-.58-.14-.86-.58-.43-1.15-.72-1.87-.72-.43-.14-.86.14-.86.72.14.86.58,1.73-.14,2.45,0,.58.29.86.72,1.01Zm-.43,3.02c.43.72.72,1.58,1.01,2.45,0,.14.58.29.58,0,.43-1.3,1.58-1.15,2.45-1.44.14-.14.29-.29.29-.58,0-.43-.14-.58-.43-.72-.29-.14-.58-.29-.86,0-.86.58-1.58.72-2.3-.14-.14-.14-.29,0-.43-.14-.29.14-.43.29-.29.58Zm5.9,78.2c-.58,0-.86.29-1.01.72,0,.86.58,1.01,1.3,1.01.43.14.43-.43.58-.72-.14-.58-.14-1.15-.86-1.01Zm.29-86.55c-.43,0-.72.29-.72.72s.43.86.86.72c.43-.14.72-.43.58-1.01,0-.29-.29-.58-.72-.43Zm1.3,82.09c.14-.29.29-.72-.14-1.01-.43-.29-.86-.14-1.15.14-.86,1.01-.72,1.87.72,3.89,0-1.44-.29-2.3.58-3.02Zm-1.15,8.21c-.43,0-.58.29-.58.58s.14.43.43.43c.43,0,.43-.29.43-.58s-.14-.43-.29-.43Zm.72-33.99c.14.29.43.72.86.72.43-.14.58-.58.43-.86,0-.58-.29-1.15-.43-1.87-.86.58-1.01,1.3-.86,2.02Zm1.01-7.49l.29-.14c.14-.58-.29-1.01-.58-1.44h-.58c.29.72,0,1.3.86,1.58Zm.14-41.62c-.43,0-.86.14-.86.72,0,.14.14.43.29.58.58,0,.72-.43.86-.86,0-.14-.14-.58-.29-.43Zm0,44.07s-.29-.14-.29,0c-.58.29-.43.72-.14,1.3.58-.29.72-.72.43-1.3Zm2.45,3.89c-.29-1.3,0-2.45,0-3.6q-1.44,2.45,0,3.6Zm.43,33.84c0,.14.14.43.29.58.29.14.58,0,.58-.14.43-.72.72-1.44,1.15-2.02-1.15,0-1.87.58-2.02,1.58Zm1.58-35.86c0,.29.29.43.58.43.14,0,.29-.14.29-.43s-.14-.58-.58-.43c-.14,0-.29.14-.29.43Zm2.59-50.55c-.58,0-1.15.14-1.3.86,0,.58.58,1.01,1.15,1.15.29,0,.58,0,.72-.14.72-.43,1.15,0,1.44.58.14.29.43.58,1.15.29-.58-1.58-1.44-2.74-3.17-2.74Zm-.72,80.5c-.14,0-.58.14-.43.58.14.29.29.72.72.72.43-.14.43-.43.43-.86,0-.29-.14-.72-.72-.43Zm1.58-1.3c-.14.29.14.43.29.43.29.14.58,0,.58-.43,0-.14-.14-.29-.43-.29-.14,0-.43.14-.43.29Zm1.87-35.14c-.14-.58-.43-.86-1.01-.86-.29,0-.72.29-.58.72,0,.58.29.86.86.86.43,0,.72-.29.72-.72Zm-.14-45.65c0,.29.14.58.43.43.29-.14.43-.43.29-.86,0-.14-.14-.29-.43-.29-.29.14-.43.43-.29.72Zm2.74,88.14c.14-.43,0-.86-.58-1.01-.29-.14-.43.14-.43.58-.14.43-.14.86.43,1.01.29,0,.58-.14.58-.58Zm-.14-38.88c0,.29.14.72.58.58.29,0,.43-.29.43-.58-.14-.29-.29-.43-.58-.58-.43.14-.58.29-.43.58Zm1.73-39.32q-1.01.72-1.15,1.87c.86-.58,1.01-1.15,1.15-1.87Zm3.46,71.86c-.72-.58-1.58-.86-2.45-.86-.14,0-.43.43-.43.58,0,.29.14.72.43.58.72-.14,1.44-.43,1.87.58.29.29.58,0,.72-.29,0-.14,0-.43-.14-.58Zm0,6.62c.14-1.01.86-1.73,1.44-2.88-2.59.58-2.45-1.01-2.45-2.88q-1.01,2.02,1.01,5.76Zm.14-27.51c-.14-.29-.29-.86-.86-.72-.72.29-.58,1.01-.29,1.44.58.86,1.01,1.87,1.01,3.02,0,.72.58,1.15,1.44,1.87.43-2.3-.58-3.89-1.3-5.62Zm-.58,16.99c-.14.43,0,1.01.58,1.15.43.14.58-.29.72-.72,0-.43,0-.86-.58-1.01-.43-.14-.58.29-.72.58Zm2.16-77.62c-.14,0-.29.29-.29.43,0,.29.29.43.43.43.29-.14.29-.29.29-.58,0-.14,0-.43-.43-.29Zm1.44,21.17c-.29-.29-.29-1.15-1.15-1.15-.86,1.3.14,2.3.29,3.6q2.16-1.01.86-2.45Zm-.86,54.87c.58-.14.72-.72.72-1.3-.14-.43-.29-.86-.72-.72-.58.14-.58.72-.58,1.15s.14.86.58.86Zm.72-70.28c-.43.43-.43.72.14.86.29.29.72,0,.86-.29.72-1.01.43-2.02-1.15-3.46-.58,1.15,1.3,2.02.14,2.88Zm.29,5.9c.14.14.29.72.72.43.58-.43,0-.72-.29-1.15-.14-.14-.43-.29-1.01-.14.14.29.29.58.58.86Zm.43,35.57c.29,1.44.72,2.74.86,4.18,0,.29.29.58.58.43.43,0,.58-.29.58-.58-.14-1.87-.43-3.6-.72-5.33,0-.29-.14-.43-.72-.29-.58.29-.72.86-.58,1.58Zm3.02,10.08c.43.29.86.29.86-.29,0-.29-.14-.58-.29-.86-.29-.58-.58-.14-.86,0-.58.43-1.3.58-1.3,1.44.58.29,1.01-.58,1.58-.29Zm1.01,6.34c0,.14,0,.43.29.58.29.14.58-.14.58-.43s0-.58-.29-.72c-.29,0-.58.14-.58.58Zm1.3,7.78c0-.14-.14-.43-.43-.29-.43,0-.43.29-.29.58.14.43.29.86.43,1.3.86-.58.58-1.15.29-1.58Zm1.3,7.78c.86-1.15.43-2.02-.43-3.17-.72,1.44-.29,2.16.43,3.17Zm1.15-14.26c-.14,1.58-.29,3.31,1.15,4.75.29-2.45-.29-8.06-1.01-9.22-1.3,1.44-.14,3.02-.14,4.46Zm.86,6.48c.14,2.45,1.01,4.75,0,7.2,2.3-2.59,2.16-4.32,0-7.2Z"/><path class="cls-1" d="m308.92,197.44h-18.87q-2.02,0-2.02-2.02v-72.73c0-.58-.14-1.15,0-1.87,0-.86-.43-1.15-1.3-1.15h-26.64c-.86,0-1.15-.43-1.15-1.15v-15.41q0-2.3,2.3-2.3h76.76c1.15-.14,1.58.29,1.58,1.44,0,5.18-.14,10.51,0,15.84,0,1.3-.58,1.58-1.58,1.58-3.02-.14-5.9,0-8.78,0h-15.84c-3.17,0-2.88-.29-2.88,2.88v73.16c0,1.58,0,1.73-1.58,1.73Zm-32.12-83.09c-.29-.14-.58-.14-.58.14-.29.43,0,.72.43.72.14.14.43-.14.58-.14-.14-.29-.14-.72-.43-.72Zm.86-9.36c-.14.58.29.72.72.86.58.29.72-.29.58-.58,0-.43,0-1.01-.58-1.01-.43,0-.72.43-.72.72Zm2.3,8.93c-.86.86-.72,1.73,0,2.59.29-.86,1.15-1.73,0-2.59Zm9.07,2.02c-.14-.86-.29-1.73.14-2.45.58-1.01.43-1.73-.14-2.59-.29-.72-.72-1.3,0-2.16.43-.58-.14-1.01-.72-1.01-.72.14-1.15.58-1.44,1.15-.29.86-.14,1.87.72,2.16,1.01.58.86,1.15.58,2.02-.43,1.3-.43,2.74.14,4.32.72-.43.72-.86.72-1.44Zm4.18,34.71c-.29,1.01-.29,1.87.43,2.16.86.29,1.44-.58,2.16-1.15-1.01-.29-1.73-.72-2.59-1.01Zm.86-23.62c-.14.43.14.86.58,1.15.14,0,.43-.29.43-.43.14-.43,0-.86-.43-1.01-.29,0-.58.14-.58.29Zm1.15,45.08c-.43.29-.43,1.01-.14,1.3,1.01,1.3,1.3,2.88,2.02,4.46,1.01-.86.72-1.58.29-2.45-.43-1.3-1.3-2.59-.58-4.32.14-.29,0-.86-.72-1.3-.29.86,0,1.73-.86,2.3Zm0-51.84c0,.14.29.43.43.43s.43-.29.58-.43c.29-.86,0-1.58-.58-2.3-.72.72-.72,1.58-.43,2.3Zm1.3,46.66c-.29,0-.43.29-.58.58,0,.43.14.72.43.72.58.14.43-.29.43-.43,0-.43,0-.72-.29-.86Zm0,14.54c0,.14.29.14.43,0,.58-.43.43-1.15.14-1.73l-.29-.14c-.29.58-.72,1.15-.29,1.87Zm.43-64.52c0,.29.14.58.58.43.29,0,.58-.43.58-.58-.29-1.3-.86-2.45.14-3.6.14-.14-.29-.72-.72-.86-.43-.14-.58.29-.72.58-.14.58-.29,1.01-.43,1.73.43.58.29,1.44.58,2.3Zm2.16,17.57c-1.01-.58-1.58-.43-1.87.72,0,.29-.29.58-.29.86,0,.14,0,.58.14.58.14.29.58.29.72,0,.43-.86,1.58-.72,2.16-1.44-.14-.58-.58-.58-.86-.72Zm-1.87,52.28c.29,1.15-.29,2.3.29,3.46.14.29.14,1.01.86.86.43-.29.58-.72.58-1.15-.29-1.15-.72-2.16-1.01-3.31-.29.14-.58.14-.72.14Zm2.3-65.81c.29-.43.29-1.15-.29-1.73-.14-.29-.43-.14-.72-.14-.72.29-.86.86-.86,1.58,0,1.01.29,1.87.86,3.02.43-1.15.29-2.02,1.01-2.74Zm-.72,17.57c-.29-.14-.58.29-.58.72-.14.58.29.86.86.86.29,0,.58-.14.58-.58-.29-.29-.43-.86-.86-1.01Zm0-12.67c-.14,1.15-.29,2.16.58,3.31.72-2.02.72-2.3-.58-3.31Zm1.44,5.18c.14-.58,0-1.01-.58-1.01-.29,0-.43.29-.43.58-.14.43.14.72.43,1.01.29-.14.58-.29.58-.58Zm-.14-27.65c-.29.72-.29,1.3.14,2.16q.72-1.44-.14-2.16Zm.29,81.37c0,.29,0,.58.43.72.14,0,.29-.14.43-.43,0-.29,0-.58-.43-.72-.29,0-.43.29-.43.43Zm.72-5.04c.14-.43.14-1.3-.29-1.01-.86.58,0,1.58-.14,2.45.43-.43.14-1.01.43-1.44Zm-.14-3.74c.29,0,.43-.14.43-.43.14-.29,0-.72-.29-.72-.29-.14-.58,0-.58.29-.14.43.14.72.43.86Zm.29-17.57c.14,1.87,1.15,3.46.72,5.47-.14.72-.29,1.44-.72,2.02-.29.43-.14.72.14.86.29,0,.58,0,.72-.29.14-.14.14-.43.29-.58,1.01-4.03.14-7.92-1.15-11.67,0-.14-.14-.29-.43-.14-.14,1.44.29,2.88.43,4.32Zm.43-40.9c-.29,0-.58,0-.72.29-.14.29,0,.58.43.58.29,0,.58-.14.58-.43.14-.29-.14-.29-.29-.43Zm-.14,31.97q-.58,1.3.14,2.88c.29-1.3.43-2.02-.14-2.88Zm.58-29.09c-.14.43.29.43.58.43s.58-.14.58-.58c-.14-.14-.14-.43-.43-.29-.43-.14-.72,0-.72.43Zm3.31.29c-1.15,1.3-1.01,1.44.14,2.45.14.29.29.43.14.58,0,.43-.29.58-.58.29-.72-.43-1.01-.14-1.01.58,0,.58.14,1.15.86.72,1.01-.43,1.87.43,2.88-.14-1.58-2.02-1.01-4.46-1.73-6.91-.86,1.01-.14,1.73-.72,2.45Zm.58,65.38c.14.14.29.14.43,0,.43-.58.58-1.15-.14-1.87-.72.58-.86,1.15-.29,1.87Zm.14,2.88c-.29,0-.43.29-.43.58,0,.43.14.72.43.72.43,0,.58-.29.58-.72,0-.29-.29-.58-.58-.58Zm2.59-77.05c.14.14.29.14.43-.14.29-.58,0-.86-.72-1.44-.14.72-.43,1.15.29,1.58Zm.43-4.9c0-.72.86-1.58-.43-2.45.14,1.73-.86,3.17-.29,5.04,1.01-.86.72-1.73.72-2.59Zm2.02,9.79c.14.29.29.29.58.29.14,0,.58-.14.43-.29-.29-.86.29-1.58-.43-2.59-.58,1.01-.72,1.73-.58,2.59Zm6.77-9.5c0,.14.14.43.14.58q1.44-1.01-.43-2.45c.14.86.14,1.3.29,1.87Zm2.3,4.75c-.29-.14-.58-.72-.86-.14-.29.29-.14.72.14,1.01.43.14.72.29,1.01-.14.14-.29,0-.58-.29-.72Zm6.34-7.49c0-.29-.14-.58-.43-.86-.29-.58-1.15-.58-1.58,0-.29.58-.29,1.15-.14,1.58.43.72.14,1.3-.14,2.02-.43,1.3-1.01,2.74.14,4.03.58.58.58,1.44.43,2.16-.14.86-.29,1.73-.29,2.45-.14.58.14,1.01.58,1.15.58,0,.86-.14,1.15-.72.58-1.44,1.3-2.88.86-4.32.29-2.59-.86-5.04-.58-7.49Zm3.75,1.01c-.14,0-.29,0-.43-.14-1.01-.14-.86.43-.86,1.01.14.29.29.72.43,1.01,1.01.86,1.01,2.02,1.01,3.17v2.02c0,.29.14.72.43.72.58.14.72-.29.72-.72.14-1.87.29-3.74.58-6.19,0-1.15-.14-1.3-1.87-.86Z"/><path class="cls-1" d="m429.88,197.15c-.72.72-1.44.43-2.02.43h-21.17c-1.44.14-2.16-.43-2.88-1.58-5.33-7.92-10.66-15.7-15.99-23.62-.43-.72-1.01-1.15-2.02-1.15h-12.1c-1.58,0-1.73,0-1.73,1.73v23.04q0,1.58-1.58,1.58h-19.01c-1.15.14-1.58-.43-1.44-1.58v-92.31c0-3.02-.29-2.74,2.74-2.74,11.95,0,24.05-.14,36.15,0,5.18,0,10.51.29,15.7,1.44,7.63,1.44,14.69,4.32,19.73,10.66,3.31,4.03,4.75,8.79,5.47,13.68,1.01,6.34,1.15,12.82-.14,19.15-.86,4.75-2.59,9.07-5.76,12.96-3.02,3.75-7.06,6.19-11.52,7.92-.86.29-1.73.29-2.45,1.15,6.62,9.79,13.25,19.44,20.02,29.23Zm-76.61-24.77c-.86,0-.72,1.01-.72,1.58,0,.72-.29,2.02.58,2.16,1.44.14.43-1.3.86-1.87,0-.72.43-1.87-.72-1.87Zm.29-24.77c0-.29-.14-.43-.43-.43s-.43.14-.43.43c-.14.72-.29,1.44.29,2.45.58-1.01.58-1.73.58-2.45Zm2.02-15.41c-.14-.14-.43-.14-.72,0-.72.43-1.01,1.73-.43,2.74,0,.14.29.29.43.29.29.14.43-.14.58-.43.14-.72.29-1.44.29-1.58.14-.72,0-1.01-.14-1.01Zm-.43-18.29c-.43,0-.72.29-.58.72.14.43.43.58.86.58.43-.14.43-.43.43-.72,0-.43-.29-.72-.72-.58Zm0,64.37c-.29,1.44.14,2.3,1.01,3.6.29-1.58,0-2.59-1.01-3.6Zm1.15-29.38c.14.29.29.72.72.72.58-.14.58-.72.58-1.15s-.29-.86-.86-.86c-.58.29-.43.72-.43,1.3Zm.58-16.99c.14.29.29.72.86.58.14,0,.29-.14.43-.43,0-.43-.29-.72-.72-.72s-.72.29-.58.58Zm2.74,44.93c-.58-.29-1.01-1.01-1.58-.43-.14.14-.29.43-.29.72,0,.86,1.73,1.87,2.59,1.44.14-.14.29-.43.43-.58,0-.86-.72-.86-1.15-1.15Zm.29-31.25c-.14.58.43.86,1.15.86.58-.14,1.01-.72.72-1.15-.58-1.15-.29-2.3-.43-3.31-.29-1.87-.14-2.3,1.3-3.02.58-.29,1.44-.43,1.15-1.44-.14-.72-.72-1.3-1.44-1.58-1.15-.29-1.44,0-1.58,1.3,0,.43,0,.72-.29,1.01-1.01.72-.86,1.73-.86,2.88-.29,1.44.72,2.88.29,4.46Zm.43-16.13c-.29,0-.43.43-.43.58,0,.29,0,.72.43.72s.58-.43.58-.72-.14-.58-.58-.58Zm2.59-21.03c-1.15,1.3-1.58,2.45-1.73,3.89-.14.72,0,1.58-.86,2.16-.29.29-.14.72.14.72,1.44.29,1.73,1.44,2.45,2.45-.72-3.02,1.01-6.05,0-9.22Zm-1.3,47.67c.43-2.02.14-4.03.29-6.05,0-.43-.29-.72-.58-.72-.58.14-.72.43-.72,1.01-.14,2.02-.29,4.03.58,6.05.29-.14.43-.29.43-.29Zm.14-31.11c-.43-.14-.58.29-.86.58-.14.43-.58.86-.29,1.44.14.43.29.72.72.72s.43-.29.58-.58c0-.43.14-.86.14-1.15.14-.43.29-.86-.29-1.01Zm1.01,60.05c-.72-.14-.86.43-1.01,1.01,0,.72.14,1.44.14,2.02,0,.72.14,1.44-.29,1.87-1.15.86-1.01,1.73,0,2.74.29.29.29,1.01.29,1.44,0,.58.14,1.01.72,1.01.72,0,1.15-.58,1.01-1.15-.14-1.3-.14-2.45-.29-3.6-.14-1.44-.86-2.74,0-4.18-.14-.43,0-1.01-.58-1.15Zm.14-79.5c.29-.43.58-1.01,0-1.58-.14-.14-.29-.29-.58,0-.58.43-.43,1.01-.43,1.58.14.14.29.29.58.72.14-.29.29-.43.43-.72Zm.43,71.72c-.72.58-.72,1.15-.43,1.87.43.58,1.3.86,1.58.29.43-1.73,2.02-1.01,3.31-1.58-2.3-1.15-3.31-1.3-4.46-.58Zm-.14-16.42c-.43,0-.43.43-.43.86,0,.29,0,.72.58.72.43,0,.58-.29.58-.72-.14-.43-.14-1.01-.72-.86Zm1.87,11.52c.14-.29,0-.58-.43-.72-.43,0-.86.14-.86.72,0,.29.29.58.86.58.14.14.43-.29.43-.58Zm.86-49.4c0-.29-.14-.58-.29-.72-.43-.14-.58,0-.58.43-.14.29,0,.58.29.58.29.14.43,0,.58-.29Zm.58,61.06c.14,0,.29-.29.29-.29,0-.72-.58-1.01-1.3-1.01.29.43.29,1.15,1.01,1.3Zm0-57.32c0-.14-.29-.29-.43-.29-.29-.14-.43.29-.43.58s.29.43.58.43c.29-.14.43-.29.29-.72Zm.86,31.54c-.14-.43-.43-.72-.86-.72s-.58.43-.58.72c.14,1.58,0,3.17,1.73,4.61-.14-1.87-.14-3.31-.29-4.61Zm.72,9.07c.29.29.58.29.86.14.29-.14.43-.58.14-.72-.58-.72-.72-1.73-1.58-2.16-.29,1.15-.14,2.02.58,2.74Zm.58-27.94c.14.14.58-.14.58-.14,0-.58-.43-.86-.86-1.3-.14,0-.29,0-.43-.14-.29.86,0,1.44.72,1.58Zm.43,41.62c-.29,0-.43.29-.43.58s0,.72.43.58c.43,0,.43-.29.58-.58-.14-.29-.14-.58-.58-.58Zm1.01-26.79c-.86.29-.72,1.15-.86,1.87,0,.29.14.72.43.72.43,0,1.3-1.01,1.3-1.73,0-.43-.29-.86-.86-.86Zm.43,8.93c0-.14-.43,0-.58.14-.29.14-.29.58-.14.72.58.58,1.15,1.01,1.3,1.87.14,0,.43.14.58.14s.29-.29.43-.43c-.14-1.15-.72-1.87-1.58-2.45Zm18.58-10.22c4.03,0,7.92-.58,11.52-2.3,3.31-1.58,5.47-4.03,6.34-7.49,1.44-4.75,1.73-9.36.29-14.26-1.01-3.17-3.17-5.33-6.05-6.77-2.74-1.44-5.76-2.16-8.78-2.3-6.19-.29-12.53-.14-18.72-.14-1.58,0-1.73,0-1.73,1.58v29.96c0,1.73.14,1.73,1.87,1.73h15.27Zm-9.65,6.77c-.14-.14-.29-.43-.43-.29-.29.14-.43.43-.29.72,0,.14.14.43.43.29.29-.14.43-.43.29-.72Zm4.03-.14c-1.01,1.87-1.01,3.74.58,5.33.58.58,1.01,1.15-.14,1.73-1.01.43-.29,1.15,0,1.58.58.72,1.87.86,2.3.29.14,0,.29-.29.29-.29-.72-1.3-.29-3.02-1.01-4.18-1.15-1.87-1.15-3.6-.14-5.33.58-1.01,0-1.73-.29-2.59-.29-.43-.72-.58-1.3-.43-.43.29-.43.58-.29,1.01,0,.43.14.86.29,1.15.14.72-.14,1.3-.29,1.73Zm2.59-46.08c.14-.14.43-.29.43-.29,0-2.3-1.01-4.46-.72-6.77,0-.14-.14-.58-.72-.72-.43,3.17-.14,5.62,1.01,7.78Zm.58,3.17c.14-.29,0-.58-.29-.72,0-.14-.29.14-.43.29-.14.29,0,.58.29.72.29,0,.43-.14.43-.29Zm1.58-8.64c.14.72.29,1.3.14,2.02-.14,2.16.86,4.18.58,6.19,0,.14.14.43.29.43.14.14.29.29.58.29.14,0,.43-.29.43-.43,0-.43,0-.86-.14-1.15-.72-1.87-.86-3.74-.58-5.76,0-1.15-.29-2.02-.72-3.02-.86.43-.72,1.01-.58,1.44Zm1.15,56.6c.72.29.72-.29.86-.72.14-.29.14-.72.29-.86.43-.43,1.15-.58,1.15-1.3,0-1.01-1.15-.43-1.44-1.15,0-.29-.29-.43-.43-.58-.14-.29-.43-.29-.72-.14-.43.14-.58.58-.43.86.58,1.01.72,1.87.29,2.74,0,.58,0,1.15.43,1.15Zm-.43-6.34c0,.14.14.43.43.43.29-.14.43-.29.29-.58,0-.14-.29-.29-.29-.43-.43.14-.43.29-.43.58Zm2.74,8.78c0-.29-.14-.43-.43-.58-.14-.14-.29,0-.43.29,0,.29.14.58.43.58.29.14.43-.14.43-.29Zm6.05-49.97c-1.15.14-1.73-.43-1.3-1.58.14-.58,0-1.15-.43-1.44-.58-.58-.58-1.44-.43-2.16.29-1.01.14-1.73-1.01-2.45,0,1.58-.72,2.45-1.87,2.88-1.3.58-1.15,1.44-.72,2.45.72.29,1.01-.58,1.73-.58.29,0,.72-.14,1.01.29.29.29,0,.72-.29,1.01-.29.58-1.3.43-1.15,1.58,1.87,0,3.46,1.73,5.62.43-.58-.58-.86-.43-1.15-.43Zm-5.47-10.22c.29,1.87,2.02-.14,2.59.86,0,0,.29,0,.43-.14-.14-.58-.14-1.15-.29-1.73-.43-2.16-.72-2.3-3.17-1.87,0,1.01.43,1.87.43,2.88Zm1.44,62.36c-.29,0-.43.29-.43.58-.14.43.14.58.43.58.43,0,.43-.43.43-.72,0-.14-.14-.43-.43-.43Zm4.32,1.58c.72-1.44.43-2.74-.29-4.03-.14-.29-.43-.58-.86-.43-.43,0-.72.43-.58.86.43,1.15.43,2.45,0,3.74-.14.14,0,.58.43.58.58,0,1.01-.29,1.3-.72Zm.29,3.02c-.29,0-.43.29-.43.43,0,.58.14,1.01.58,1.15.29.14.43,0,.58-.29-.14-.58-.14-1.15-.72-1.3Zm-.29,4.18c.14.14.43.29.72.29.29-.14.43-.29.29-.58,0-.29-.29-.43-.58-.43-.43.14-.58.43-.43.72Zm2.74-65.38c-.14-.29-.58-.86-.86-.29-.29.72-.86,1.58-1.01,2.3,0,.58,1.01,1.3,1.44,1.87h.72c.14-.14.14-.43.29-.58-.86-1.01-.29-2.3-.58-3.31Zm2.16-7.2c-.29,0-.58.29-.58.58-.14.43-.29.72-.43,1.15,0,.43,0,.86.58.86.29.14.58-.14.58-.43.29-.43.43-.86.58-1.15-.14-.58-.29-.86-.72-1.01Zm5.04,75.61c-.14-.43-.14-1.01-.58-1.15-.72-.14-.72.43-1.01.72-.29.58-.72.72-1.3.72s-1.3.14-1.3.86c0,.86.29,1.58,1.3,1.58s1.3.58,1.58,1.3c1.15,2.16,1.44,4.75,2.02,7.06.14.58,0,1.44.86,1.3.72-.14.58-1.01.43-1.58,0-.29-.29-.72-.43-1.01-.43-.86-.72-1.58-.58-2.59.14-.72,0-1.58-.43-2.02-.86-1.3-.86-2.74-.58-4.03v-1.15Zm-2.74-6.77c-.29-.14-.43-.14-.58,0-.58.58,0,1.15,0,1.73,0,0,.14.14.29.14.72-.58.58-1.15.29-1.87Zm2.16-23.91c-.14-.72-.72-.86-1.15-.43-1.3,1.01-1.01,4.46.29,5.47.29.14.58.29.86,0,.29-.14.43-.43.29-.72-.29-.72-.29-1.44-.14-2.16.14-.72,0-1.44-.14-2.16Zm-.43,8.21c.14-.43.58-.86,0-1.3-.14-.14-.43-.29-.58-.14-.43.29-.29.86-.29,1.3,0,.14,0,.58.29.72.29,0,.43-.29.58-.58Zm.29,3.6c-.29,0-.43.43-.43.72s0,.72.58.72c.43,0,.43-.43.43-.58,0-.58-.14-.86-.58-.86Zm.72,15.55c0-.14-.14-.29-.29-.29-.14-.14-.43,0-.43.29s.14.29.43.43c.14-.14.43-.29.29-.43Zm.14-53.29c.58,1.01,1.01,2.02,1.3,3.17.14.72.86.86,1.3,1.44.29.29.72.43,1.01,0,.29-.29.43-.72.29-1.01-1.15-1.44-1.58-3.17-2.3-4.75-.14-.29-.43-.43-.58-.43-.86,0-1.3.86-1.01,1.58Zm2.59,17.14c-.43-.14-.72.29-.72.72,0,.72.58.72,1.01.86.43,0,.72,0,.86-.58-.14-.58-.58-1.01-1.15-1.01Zm1.58-27.79c-.43,0-.72.43-.72.86.14.43.43.72.86.86.58.14.72-.29.72-.72,0-.58-.29-1.01-.86-1.01Zm0,75.89c1.3-.58,1.3-1.58.58-2.59-.29.72-1.01,1.44-.58,2.59Zm.86-57.61c-.29.14-.14.72.29.86.86,0,1.58-.86,2.3-1.15.58-.29-.14-1.15-.72-1.87-.86.58-1.01,1.73-1.87,2.16Zm2.02-8.78c0-.29,0-.43-.29-.43-.58,0-.72.43-.86.86,0,.14.29.29.43.43.58,0,.72-.43.72-.86Zm3.6,14.54s.14-.43,0-.58c-.14-.43-.43-.58-.72-.29-.72.72-1.58.86-2.45,1.15,1.15.72,2.16.14,3.17-.29Zm-2.3,13.25c.86-.86.86-1.44-.14-2.59-.29,1.15-.43,1.87.14,2.59Zm3.89-8.35c-.58,0-.72.43-.86.86,0,.29.14.43.29.43.58.14.86-.29.86-.72.14-.29,0-.58-.29-.58Zm2.45-23.47c0-.29-.29-.72-.43-.72-.58,0-.58.43-.58.86.14.29.14.43.29.72.14.72,0,1.44-.14,2.16-.14.86-.86.58-1.44.86-.58.14-.58.72-.14,1.15.72.58,1.44,1.01,1.58,2.02.14.43.58.86,1.01.58.58-.29.58-.72.43-1.3-.14-.58-.72-1.01-.86-1.44,0-.43.72-.86.58-1.58-.14-.86-.72-1.58-.14-2.59,0-.14,0-.43-.14-.72Zm-.29,14.83c.43,1.3,1.3,2.74,0,4.03-.29.29-.14.58.14.72.29.29.58.58.86,1.01.14.43.29,1.01.86.72.43-.14.58-.72.43-1.15-.43-1.3-.29-2.59-.58-3.74-.43-1.3.14-2.74-1.01-3.74-.86.43-1.3,1.01-.72,2.16Zm3.74,9.22c.14.29.29.43.72.43.29-.14.58-.29.43-.72,0-.29-.29-.29-.72-.29-.29,0-.43.14-.43.58Z"/><path class="cls-1" d="m441.82,128.02c1.44-6.05,3.6-11.95,7.92-16.85,3.74-4.32,8.35-7.06,13.68-8.78,4.03-1.44,8.35-2.16,12.67-2.74,5.62-.72,11.38-.58,16.99-.29,5.9.29,11.81,1.44,17.43,3.6,8.06,3.17,13.82,8.5,17.14,16.56,2.59,5.91,3.6,12.1,4.18,18.43.29,4.61.29,9.22.14,13.83-.14,9.36-1.29,18.58-5.33,27.22-3.89,8.35-10.08,14.4-18.87,17.43-5.04,1.73-10.08,2.45-15.27,2.74-2.02.14-4.03.29-6.05.29-6.05,0-12.1-.43-18-1.87-9.65-2.3-17.14-7.49-21.89-16.56-2.45-4.9-3.89-10.08-4.9-15.41-1.15-6.05-1.3-12.1-1.3-18.72-.29-5.9,0-12.38,1.44-18.87Zm11.81,35.86c.14-.14-.14-.58-.29-.72-1.01-1.44-1.29-3.17-1.44-4.75,0-1.44-.58-2.74-1.29-3.6-1.73-2.16-1.44-4.46-1.15-6.77.14-1.58.29-3.02-.29-4.46-.14-.86-.29-1.58,0-2.45.72-1.73.72-3.74.29-5.47-.43-1.73-.86-3.31-.29-5.04.14-.58.14-1.3.72-1.73.43-.43.58-1.01.14-1.44-.43-.72-.29-1.3-.43-2.02-.58-2.16-1.3-4.32-.72-6.48,0-.14-.14-.43-.29-.58-.29-.14-.43,0-.58.14-.86.58-1.58,4.46-.86,5.04,2.16,1.73,1.58,3.74,1.15,5.9-.14,1.44-.72,2.88-.43,4.32.72,4.18-1.58,8.64.29,12.82.14.29,0,.72,0,1.15.14,2.88.29,5.62,1.87,8.21.72,1.01.86,2.45,1.01,3.74,0,1.73.58,3.46.72,5.18.29,1.3,1.01,1.87,2.16,2.59-.14-1.3-.72-2.45-.29-3.6Zm-2.45-12.96c.43.14.72-.29.72-.72s-.29-.72-.72-.72-.58.29-.58.43c0,.72.29,1.01.58,1.01Zm1.44-5.62c-.58,1.58-.43,3.17.29,4.61.14.43.29.86.87.72.58-.14.72-.72.58-1.15-.43-1.15-.43-2.16.14-3.17.43-.72-.29-1.58-1.01-1.58-.43,0-.72.29-.86.58Zm1.44-29.38c.14.43.43.72.86.72.43-.14.72-.58.58-1.01-.29-1.3-.58-2.59-.86-3.74-.14-.43-.58-.86-1.01-.58-.43.14-.43.58-.29,1.3.14.86.43,2.16.72,3.31Zm-.14,37.88c-.58,0-.58.43-.58.72,0,.58.29.86.87.86.43,0,.58-.43.43-.86,0-.43-.29-.72-.72-.72Zm2.59,20.45c-.29-.29-.58-.58-1.01-.29-.29.14-.29.58,0,.72.58.58.43,1.44,1.44,2.16.14-1.01,0-1.87-.43-2.59Zm-.29-37.88c.58,0,.72-.43.72-1.01s-.14-1.3-.87-1.3c-.58,0-.43.58-.43,1.01,0,.58,0,1.3.58,1.3Zm1.3,42.48c.14,0,.29-.29.29-.43,0-.43,0-.86-.43-.86s-.29.43-.43.72c.14.29.14.72.58.58Zm-.43-64.66c0,.14.14.43.43.29.14-.14.29-.29.29-.43.14-.58.14-1.01-.58-1.3-.29.43-.29.86-.14,1.44Zm2.88.43c0,.14.14.58.58.58.29-.14.43-.43.43-.72-.29-1.44-.29-3.02-1.58-4.46.14,1.73.58,3.17.58,4.61Zm0,14.98c-.43,0-.58.29-.58.58s.14.58.43.72c.43,0,.43-.29.58-.58-.14-.29-.14-.58-.43-.72Zm-.58,7.06c.14.14.14.43.29.43.43.29.58-.14.58-.43,0-.14-.14-.43-.29-.43-.29,0-.58.14-.58.43Zm2.45,41.76c0-.58-.43-.86-1.01-.86-.43.14-.58.43-.58.86.14.86.29,1.87,1.15,3.02.43-1.3.43-2.16.43-3.02Zm-.72-60.05c-.43,1.73.14,2.59.72,3.6.29-1.15.14-2.3-.72-3.6Zm.43,48.39c-.14,0-.29.29-.29.43s.14.43.43.29c.14,0,.14-.14.29-.29,0-.29-.29-.43-.43-.43Zm12.96-46.95c-4.61,1.58-7.78,4.46-9.65,8.93-2.45,6.19-2.59,12.67-2.59,19.15,0,3.31.14,6.77.58,10.08.72,4.18,1.15,8.35,3.02,12.24,1.73,3.75,4.46,6.62,8.35,8.35,3.02,1.3,6.05,1.87,9.22,2.02,4.61.14,9.22.14,13.68-1.73,4.9-1.87,7.92-5.33,9.79-10.08,2.59-6.48,2.59-13.39,3.17-20.31.14-3.6-.14-7.2-.58-10.66-.43-2.74-.87-5.47-1.87-8.06-1.73-4.9-4.9-8.07-9.79-9.94-3.74-1.44-7.63-1.73-11.23-1.87-4.46,0-8.35.43-12.1,1.87Zm-10.22,67.97c0-1.44-.58-2.88-.29-4.32v-.14c-.14-.43-.43-.72-.87-.72-.29.14-.43.43-.43.72,0,1.3-.14,2.59,0,3.89,0,.58.43,1.3,1.01,1.58.58-.29.58-.58.58-1.01Zm4.61,2.59c.14-.29.14-.72.14-1.01.14-1.01-.14-1.58-.57-1.15-.72.72-.43,1.58-.43,2.3,0,.29,0,.58.43.86.57-.14.43-.58.43-1.01Zm.72-77.77c-.58.14-.86.58-.86,1.15.14.43.29.86.86,1.01.72,0,.87-.58,1.01-1.15-.14-.43-.29-1.01-1.01-1.01Zm4.9,72.73c-.72,0-.86.72-.72,1.15,0,.58,0,1.44.72,1.44.72-.14.43-.86.58-1.3-.14-.58.14-1.3-.58-1.3Zm0,6.48c-.14-.14-.43,0-.43,0-.58.86.14,1.58.29,2.45.14.14.29.43.43.58.14,0,.43.14.58.14.29-.14.43-.43.58-.86-.29-.72-.72-1.58-1.44-2.3Zm1.58-9.79c-.86,0-.86.72-1.01,1.3,0,.43.14,1.01.72,1.01.72,0,.86-.72.86-1.15.14-.58,0-1.01-.58-1.15Zm1.44-76.33c-.14-.29-.58-.58-.87-.29-.29.14-.29.43-.29.72.43,1.15.72,2.16,1.01,3.31.14.29.29.72.72.72.72-.14.58-.72.58-1.15-.14-1.15-.43-2.3-1.15-3.31Zm4.18,77.77c-.14-.14-.43-.43-.58-.29-.14.14-.43.43-.43.58.14.86.29,1.87.43,2.88.14.29.43.43.72.43.43,0,.43-.29.58-.72v-1.01c.14-.72-.43-1.3-.72-1.87Zm1.01,8.5c-.14-.29-.29-.43-.58-.29-.14,0-.29.14-.29.29,0,1.3-.43,2.45-.72,3.6-.14.58.14,1.01.87,1.15.57,0,.86-.43.86-1.01-.14-1.01-.14-1.87.14-2.74.14-.43,0-.72-.29-1.01Zm10.37-84.82c0-.86-.29-1.58-1.15-1.73-.43-.14-.86.43-.58.86.14.72.14,1.58,1.01,1.87.43-.14.72-.58.72-1.01Zm1.15,6.48c.14-1.15-.58-2.16-1.3-3.02-.14-.43-.72-.29-1.01,0-.29.14-.43.58-.29.72,1.29,1.15.43,2.16-.14,3.17,2.02.58,2.59.29,2.74-.86Zm.72,75.03c-.29,0-.43.14-.43.43s.14.58.58.58c.14,0,.14-.29.29-.43-.14-.29-.29-.58-.43-.58Zm3.02,7.06c.72,0,.43-.72.43-1.15,0-.29.14-.58.14-.86.14-.43.58-.86-.14-1.01-.58-.14-.58.43-.72.86-.14.29-.14.72-.14,1.15-.14.43-.14,1.01.43,1.01Zm14.4-87.56c0,2.3-.14,4.18,1.15,5.91.14-1.87.43-3.89-1.15-5.91Zm2.45,19.01c.14.29.14.58.14.72-.87,2.59-.29,5.18-.43,7.78-.29,1.87.43,3.31,1.73,4.46.43-.14.58-.58.58-1.01,0-1.73-.58-3.46-.43-5.33.29-3.46-1.15-6.77-.43-10.22.14-.58-.29-1.15-.72-1.73-.58,1.73-1.15,3.46-.43,5.33Zm9.79,5.76c-.43,0-.72.29-.86.72,0,.29.14.58.57.58.43-.14.58-.43.72-.72,0-.29-.29-.43-.43-.58Zm.29-6.05c-.43,0-.86.14-.86.58.14.58.43,1.15,1.15,1.15.58,0,1.01-.14,1.15-.86-.14-.58-.87-.72-1.44-.86Z"/></g><g><path class="cls-1" d="m90.83,82.13l.32-.27.59-.16.54-.32.22-.27.59-.38.49-.32.43-.32.27-.32.38-.43.49-.38.38-.38.27-.38.38-.43.54-.38.22-.38.32-.49.49-.38.27-.49.32-.32.27-.49.54-.86.22-.49.97-.32.27.27.49.27.38.27.22.49.05.49.11.54-.22.49-.11.54-.54.43-.32.49v.43l-.86.86-.54.49-.32.32-.38.43-.05.49-.54.38-.49.43-.05.38-.49.38-.54.38-.27.43-.54.32-.32.38-.38.32-.49.32-.38.32-.59.27-.38.38-.38.22-.81.27-.27.22-.49.16-1.3.11-.97.11-.59-.11-.43-.05-.7-.22-.16-.27-.7-.32-.16-.32-.27-.43-.38-.38-.38-.43-.32-.54-.54-.86-.49-.49.05-.54-.32-.49.11-1.03.22-.54-.11-.43.11-.49-.16-.59-.05-.43.27-.59-.22-.54v-1.08l.27-.54.05-.49.05-.59.05-.49-.05-.59v-.54l.05-.49-.16-.59.11-.54-.05-.49.43-1.08.05-.54-.22-.54.22-.59v-.49l-.11-.54.22-.59.11-.54-.16-.49.16-.54-.22-.54.27-.54v-.59l.16-.54v-.54l-.05-.54.16-.49-.16-.59v-.05l-.43.49-.38.54-.16.43v.49l-.32.43-.54.54-.11.49-.27.43-.16.54-.43.49-.11.38-.43.54-.32.49-.22.43v.49l-.49.49-.27.54-.16.49-.27.38-.22.54-.32.49-.27.43-.16.54-.22.49-.43.49v.49l-.38.43-.11.43-.54.49-.27.54-.05.43-.32.54-.22.43-.49.54-.11.43-.16.49-.16.43-.49.49-.11.54-.54.43-.11.49-.38.49.05.43-.54.54v.43l-.49.97-.43.59-.43.43-.22.32h-1.13l-.49-.22-.49-.38-.16-.43-.65-.97-.7-.92-.27-.49-.11-.54-.11-.65-.32-1.08.05-.49.22-.59-.27-.54v-.54l.05-.54.11-.49-.05-.54-.16-.59.22-.54v-1.03l-.22-.59-.16-.49.05-.59.27-.49-.16-.65-.05-.49-.16-1.08.11-.54.05-.59.05-.54-.27-.49.05-.54v-.59l.16-.54-.27-.54.11-.49-.05-.54-.05-.59.11-.49-.38-.11-.16.49-.38.43v.43l-.49.54.11.49-.27.49-.49.54-.22.43-.05.54-.49.49v.43l-.43.54-.38.43v.49l-.22.54-.32.43-.11.49-.59.54.05.49-.27.49-.27.43-.49.54v.49l-.22.43-.22.54-.38.43-.32.49-.59.97-.22.43-.22.54-.27.43-.43.97-.38.43-.22.54-.27.43v.54l-.59.92-.22.43-.54.49-.22.43-.43.38-.05.43-.32.54-.32.32-.38.43-.49.43-.43.38-.27.27-.76.32-.27.22-.76.22-.32.05-.43.11h-1.83l-.43-.11-.97-.27-.59-.59-.59-.43-.32-.43-.38-.38-.16-.43v-.49l-.49-.59.05-.49-.49-.54-.16-.49.05-.54v-.54l-.11-1.08-.32-.54.05-.54-.05-.59.22-.54-.11-.54.11-.54-.05-.59.43-1.03.05-.49.11-.54.43-.54.11-.38.54-.43.49-.22.38-.16.65-.05h.27l.43.76-.16.54.05.49-.16.54-.05.54v.54l.16.59-.05.49-.05.54.05.59.05.54.11.54-.16.54.22.49.22.54-.16.59.11.49.32.49.16.54v.54l.76.97.92.16.38-.22.49-.38.32-.38.49-.43.05-.43.43-.76.54-.22.05-.38.22-.22v-.38l.16-.32.43-.32.22-.38.43-.86.27-.38.27-.49.27-.43.05-.49.16-.43.22-.43.32-.54.27-.43.49-.54.05-.49.11-.49.27-.54.38-.43.16-.59.49-.43.05-.59.38-.43.16-.59.27-.43.38-.59.05-.49.22-.54.49-.54.22-.49.27-.49.38-.54.05-.54.22-.54.43-.54.11-.49.54-1.03.16-.59.54-.54.22-.97.32-.54.43-.49.27-.54.11-.59.05-.43.27-.59.59-.54-.05-.49.43-.49.16-.59.43-.49.22-.97.43-.59v-.76l.76-.32,1.19-.16.59-.11,1.08.05.65.16.32.38.27.49.11.49.22.49.32.59-.11.54.16.97.05.54-.27.54.32.59-.27.54.05.49-.05.65.22.49v.54l.05.65-.22,1.08-.05.49.05.59.27.59-.22.54v.54l-.05.49-.05.59.11.54.22.54-.11.54.11.49-.16.54.16.59-.05.54.11.49-.32.65.27.54v.54l.05.49-.32.59.32.54-.11.54.11.54-.11.49-.16.54.43.05.32-.43.11-.49.43-.49v-.43l.43-.49.16-.49.22-.54.16-.43.43-.49.22-.43.38-.54.32-.97.38-.49.27-.49v-.49l.38-.43.22-.43.22-.49.32-.54.43-.49.05-.49.22-.49.54-.49-.05-.38.38-.49.16-.54.32-.49.43-.49-.05-.49.27-.43.38-.49.43-.49v-.49l.43-.43.22-.54v-.43l.49-.54.11-.38.32-.49.16-.49.43-.49.49-.97.05-.49.54-.43.16-.49.16-.54.7-.97.16-.59.16-.86.65-.38.54-.05.54.05.92-.05.49.11.49.05.32.27.59.27.54.38-.11.81v.32l.11.27.16.27-.16.27-.05.27-.16.32.22.43-.11.32-.11.43.22.43-.05.43-.16.49-.05.54-.05.49.05.59-.05.49-.16.54-.05.65v.54l-.16.65.11.59-.22.59-.11.59v.54l.11.59-.27.65.05.59.05.65-.22.59.05.59.11.7-.11.54-.05.59-.27.65-.11.59.16.7-.22.54-.11.59.27.7-.32.54v1.24l.05.65-.27.54.05.7-.22.54v.59l.05.59-.22.65.16.59-.22.59.16.65-.22.54-.11.59.16,1.19-.11.49.11.59.27.59.16.22,1.4-.11.32-.05Z"/><path class="cls-1" d="m102.56,86.18l-.76-.16-.54-.05-.32-.27-.76-.22-.43-.27-.27-.32-.38-.27-.59-.43-.43-.43-.22-.38-.38-.43-.38-.54v-.49l-.32-.49-.16-.54-.32-.54.22-.54.05-1.08-.27-.49.27-.54v-.54l.11-.54-.11-.54.05-.54.16-.59.32-.43.11-.59.27-.49.11-.49v-.54l.32-.49.32-.59.22-.49-.05-.49.22-.49.43-.49.11-.43.49-.49.27-.49.16-.54.05-.38.32-.49.43-.43.43-.49.16-.49.27-.38.38-.43.49-.43.22-.43.32-.38.22-.43.49-.43.22-.38.7-.38.16-.38.59-.43.11-.38.43-.32.65-.32.49-.38.05-.32,1.24-.54.22-.22.59-.16.65-.11.22-.11.7-.05,1.19-.11.43.05.59-.05h2.27l.49.11.59.11.65.38-.27.97-.7.7-.97.54-.32.27-.43.38-.7.32-.11.27-.43.38-.76.27-.16.38-.54.32-.22.38-.54.32-.43.38-.7.7-.65.38-.05.38-.43.38-.54.43-.38.32-.22.49-.43.32-.38.49-.65.86-.32.38-.32.43-.05.49-.65.49v.43l-.38.49-.32.43-.11.49-.32.54-.05.49-.49.49.11.49-.38.49-.32.49.11.59-.38.43.16.54-.43.54.22.54-.16.54-.05.49v.59l-.27.54.38,1.03.27.49h.81l1.08-.11.27-.22.81-.22.43-.22.27-.27.32-.27.7-.32.38-.38.22-.38.27-.32.54-.38.65-.76.54-.43.32-.43.43-.43.22-.43.32-.43.43-.43.11-.54.16-.38.43-.49.16-.49.43-.54.16-.43.27-.54.32-.43.27-.49.16-.54.05-.54.22-.43.38-.59.05-.49.11-.49.38-.54.05-.54.38-.49.16-.54-.16-.49.27-.54-.05-.59.16-.54.27-1.08.7-.49,1.19-.05h1.08l1.03.05.43.16.54.38.11.59v.49l.05,1.08-.16.49v.49l-.27.59.05.54.05.59-.27.54-.11.54.05.54-.11.54-.27.54.16.54-.32.49-.11.59.16.49-.16.59-.27.54.11.49-.27.54-.05.54-.22.59.11.49-.27.59.05.54.05.49-.27.54-.11.54-.16.54.16.59-.05.49-.27.59v1.13l.54.38,1.08.05.38-.16.49-.16.54-.16.54-.27.59-.32.49-.27.38-.32.27-.38.65-.27.27-.38.32-.38.49-.49.49-.32.27-.38.22-.49.32-.43.43-.43.38-.32.49-.43.05-.43.59-.54.11-.38.49-.49.22-.38.49-.49.54-.32.81.16.43.27.22.32.38.43-.05.59-.16.49-.27.54-.22.49v.43l-.59.54-.16.38-.81.86-.32.38-.27.43-.22.38-.59.43-.43.38-.16.43-.54.38-.32.32-.32.43-.43.38-.49.32-.49.38-.27.27-.43.38-.32.27-.76.27-.22.22-.43.32-.49.22-.65.11-.38.11-1.4.05-.22-.05-.59-.11-.81-.05-.38-.16-.54-.16-.59-.27-.38-.27-.43-.22-.54-.32-.27-.38-.38-.49-.49-.38-.05-.49-.38-.49-.16-.97-.11-.54-.05-.54-.05-.59.22-.49-.16-.54-.11-.49v-.54l.22-.54-.05-.49-.32-.05v.43l-.22.49-.49.43-.05.49-.27.49-.22.49-.38.43-.49.38-.11.49-.32.49-.43.38-.11.43-.49.43-.43.43-.27.43-.27.38-.38.38-.54.38-.38.38-.16.27-.7.43-.32.27-.27.32-.59.27-.59.22-1.08.22-1.08.05-.32-.05Z"/><path class="cls-1" d="m132.86,85.75l-.76-.22-.32-.27-.49-.32-.49-.27-.49-.38-.27-.38-.81-.81-.16-.49-.38-.49-.32-.49-.43-.49-.11-.54-.05-.54.16-1.03.05-.49.16-.49.22-.54-.16-.59.27-.54v-.43l.22-.54v-.59l.11-.54.27-.54-.16-.54.43-.43.05-.59-.22-.49.22-.59.05-.43.38-.54-.05-.59.16-.49.05-.49.05-.59.27-.54v-.49l.11-.54-.05-.54.05-.54.16-.43v-.59l.27-.54v-.49l.05-.49.27-1.08-.05-.59-.22-.43-.22-.49-.32-1.13,1.03-.43.43-.16.76-.11.92-.16.59-.05.76-.16.59.05.49-.05.32.11.59.22.49.32.27.92-.05.49-.05.43-.22.54-.11.49v.59l.05.49-.16.54-.32.59v1.08l-.32.54-.05.54-.11.49-.05.59-.11,1.08-.38.59v1.03l-.16.59.05.49-.32.59v.97l-.38.59-.05.54.11.54-.05.43-.32.54-.05.54-.16.54-.05.54-.16.54-.11.54.11.54-.22.54-.11.59-.16.54.11.59v1.08l.16.49,1.13.05.32-.16.65-.16.59-.27.49-.27.38-.32.54-.38.32-.27.22-.38.38-.38.38-.43.54-.38.38-.43.54-.38.05-.38.59-.43.38-.49.27-.38.43-.38.22-.43.32-.49.76-.86.16-.54.86-.27.43.22.49.27.43.32.38.43.05.54-.27.54-.54.97-.05.54-.38.38-.27.54-.7.81-.32.43-.27.43-.49.43-.54.38-.16.38-.59.38-.27.43-.38.32-.32.32-.65.38-.16.43-.49.27-.49.38-.59.32-1.3.81-.27.27-.81.22-.81.32-.7.16-.38.05h-1.29l-.27-.16Zm2.05-33.52l-.43-.22-.54-.32-.49-.43-.22-.38-.22-.49-.38-.54-.05-.49.11-.65-.27-.49v-.59l.16-1.13-.05-.54.32-.59.59-.54h.7l.43-.05.65.05.38-.05.7.16.65.05.49.22.49.16.49.32.16.27.43.49.27.43.05.54.11,1.03-.05.54-.38.59-.22.49-.27.54-.27.49-.22.43-.32.27-.59.32-.65.16-.97.05-.59-.11Z"/><path class="cls-1" d="m176.75,75l.16.49-.16.59-.22.49-.49.49-.22.43-.16.49-.92.86-.38.43-.22.32-.43.43-.49.38-.16.38-.32.49-.65.38-.86.65-.16.43-.38.38-.7.27-.16.32-.49.32-.7.32-.22.32-.65.27-.22.22-.59.22-.43.16-1.3.32-.27.05-1.24-.05-.65-.16-.97-.43-.54-.32-.38-.27-.38-.38-.43-.32-.22-.49-.43-.43-.22-.43-.43-.49-.32-.43-.11-.54-.16-.49-.11-.54-.11-.97.43-.43v-.43l.16-.49-.11-.43.05-.49.32-.59.05-.49.05-.54.22-.49-.16-.49.05-.54.22-1.08.22-.59.22-.54v-.54l.16-.49.05-.54.32-.59.05-.59.05-.49.16-.59.22-.54.05-.54v-.49l.27-.65-.22-.49.11-.54.16-1.03.16-.54-.38-.22h-1.08l-.27.11-.38.11-.49.11-.65.16-.27.22-.54.27-.54.32-.43.22-.22.38-.38.22-.49.43-.65.27-.22.43-.43.38-.65.32-.05.43-.38.49-.38.38-.32.43-.43.43-.43.54-.16.38-.59.49-.27.54-.05.49-.38.49-.38.54-.32.43-.11.49-.16.59-.16.27-.22,1.08-.11.97-.43.59.27.43-.38.59.16.49-.38.54.27.49-.38.59.05.43.05.54-.16.54-.27.49-.11.54.11.59-.16.43.11.59-.32.54.22.49-.49,1.13-.27.49h-.97l-.59-.22-.32-.22-.54-.43-.49-.32-.22-.49-.32-.49-.27-.49-.38-.49-.05-.43-.32-1.03-.22-.97.05-.43.11-.54.22-.54.16-.54.16-.59-.11-.59.11-.54.27-.49-.05-.59.22-.49.22-.54.11-.59.11-.54v-.54l.16-.49.05-.54-.16-.59.32-.49v-.54l.27-.54.05-.54.16-.59.11-.49-.16-.54.32-.54.11-.54-.05-.54-.05-.49.43-.54-.05-.54v-.59l.27-.54-.11-.49.27-.54.11-1.13-.27-.54-.05-.43-.49-.54.05-1.08,1.03-.38.54-.22.59-.11.43-.11.92-.16.54-.11,1.13.05.54.05.49.16.54.38.16.92.32.49-.32.43-.11.49.16.54-.38.59.11.49-.32.59-.16.54.05.54-.16.54-.11.49.05.59-.38.49-.11.59-.05.49-.05.65v.05l.05-.05v-.49l.22-.49.43-.43.32-.49.16-.43.27-.43.22-.54.32-.38.27-.43.59-.43.16-.38.49-.49.22-.32.27-.49.65-.38.11-.27.38-.43,1.19-.65.27-.32.32-.22.43-.27.7-.27.59-.22.38-.11.49-.22.65-.11.22-.11,1.3.11.32.11.54.32.43.27.54.32.54.27.86.76.16.38.49.43.11.38.27.49.38.49.43.43.11.49-.05.59.16.49-.05,1.03-.16.49-.22.49.11.49-.05.59-.16.49-.05.59-.22.54-.16.54-.27.49.05.59.05.49-.05.54-.38.54-.11.49.16.54-.05.59-.38.54.11.54-.16.43v.54l-.32.54.11.59-.11.54-.05.49-.22.49v.54l-.16.54-.05.49-.38,1.19.32.49h1.08l.7-.11.54-.22.32-.22.59-.38.38-.22.49-.43.38-.27.38-.43.32-.32.65-.43.22-.32.86-.86.22-.38.49-.49.22-.38.65-.38.32-.43.05-.43.49-.54.38-.38.11-.49.38-.43.76-.32.59.22.54.22.27.43.32.38-.16.54Z"/><path class="cls-1" d="m191.17,86.34h-.38l-.81-.05-.27-.16-.65-.11-.7-.11-.22-.27-1.13-.59-.22-.32-.65-1.08.16-.54-.22-.54.11-.54.05-.59.65-.38.65.05.32.11.54.05.86.11h.27l1.24.05.49-.11h.65l.32-.05.59-.05.81-.11.32-.05.59-.11.49-.11.54-.16,1.73-.43.54-.16.32-.11.59-.22.38-.16.76-.27.32-.11.43-.22.65-.22.59-.22.27-.32.59-.22.43-.22.49-.22.54-.27.43-.27.32-.27.65-.32.32-.32.7-.22.27-.38.54-.32.49-.27.32-.32.54-.38.76-.65.38-.43.11-.43.38-.38.54-.38.49-.92.11-.43.27-.59-.27-.43-.38-.27-.54-.22-.97-.32-.81-.16-.27-.27-.59-.11-.43-.16-.59-.27-.43-.11-.54-.16-.54-.27-.49-.22-.54-.11-.76-.27-.22-.22-.49-.22-.76-.22-.27-.16-.76-.27-.54-.32-.49-.22-.49-.32-.16-.27-.76-.38-.38-.38-.22-.32-.49-.43-.16-.43-.59-.38.05-.43-.27-.49-.32-.54-.22-.49-.05-.54-.11-.49-.22-.54.11-.54-.16-.59.16-.54-.05-1.08.11-.49-.11-.54.22-.54.11-.49.49-.43.11-.43.38-.49.32-.32.81-.65.7-.43.27-.27.65-.27.27-.38.59-.22.38-.32.59-.27.22-.27.59-.27.65-.32.27-.22.81-.22,1.03-.49.97-.05.54.05.76.11.59.11.38.11.54.11.76.11.27.05,1.29.22.43.16.59.05.32.16.65.16.49.11.54.16.7.54.32.43.76.92.22.54.05.49-.11.49.11.49.32.49-.16,1.08-.43.43-1.03.27-.32-.05h-.59l-.54-.05-.38-.11-.54-.16-.7-.76-.11-.54v-.59l-.22-.54-.11-.59-.27-.76-.81.16-.81.22-.54.16-.32.11-.54.27-.65.16-.43.22-.38.16-.97.43-.59.27-.38.22-.54.27-.32.32-.54.27-.43.32-.59.27-.32.38-.49.27-.16.38-.49.49-.32.43-.43.43-.05.43-.32.49.16,1.08.32.43.38.38.27.49.16.32.54.32.7.32.32.32.49.22.43.32.59.22.32.22.54.27,1.08.38.59.22.32.27.76.16.32.22.65.22.65.11.54.22.38.16.65.22.49.22.27.22.59.16,1.19.49.22.32.43.38.38.38.38.43.27.43.27.49.43.49.05.38.59.92.27.54.32.43v1.13l-.43.97-.43.54-.27.43-.16.49-.59.43-.22.38-.38.43-.32.43-1.03.7-.22.38-.38.38-.38.32-.54.38-.49.27-.22.32-.65.32-.22.38-.7.27-.54.32-.16.22-.49.38-.65.27-.54.27-.43.16-.49.27-.54.32-.43.16-.43.22-.49.27-.65.16-.54.22-.22.22-.7.27-.54.16-.49.16-.49.22-.49.16-.54.16-1.13.27-.43.11-.49.22-.49.11-.7.11-.38.11h-.7l-.43.16h-.76l-.49.11h-2.27l-.43-.05Z"/><path class="cls-1" d="m243.6,74.89l-.27.59-.16.43-.27.49-.16.49-.32.43-.22.49-.65.86-.59.49-.11.43-.27.38-.65.43-.27.38-.32.38-.32.32-.49.38-.54.43-.38.27-.54.38-.38.22-.49.38-.49.27-.43.27-.65.22-.32.22-.54.27-.65.22-.43.16-.59.16-.59.11-.43.22-.59.05-1.08.22-.38.05-1.19-.11-1.08-.22-.32-.22-.49-.16-.43-.32-.54-.27-.65-.27-.27-.32-.49-.32-.43-.38-.27-.43-.54-.38-.16-.49-.27-.49-.38-.49-.16-.43.11-.54v-1.46l.43-.54-.11-.59.11-.54.27-.54v-.49l.22-.65v-.49l-.05-.54.11-.54.05-.59.32-.54-.16-.49.16-.65.38-.49.05-.59-.11-.54.11-.54v-.54l.27-.49.16-.54.05-.54-.11-.59.38-.49.05-.54.05-.59-.05-.54.22-.49-.16-.49.32-.59.11-.49-.05-.43h-2.05l-.7.05-.54-.43-.32-.59.22-1.03.27-.38.49-.43.16-.22.86-.11.43-.16h1.67v-.05l.05-.59.16-.54.27-.54.11-.49-.27-.54.43-1.08-.11-.59-.16-.49-.59-.43.05-1.08,1.08-.49.54-.16.54-.05.65-.16.27-.05.76-.11.38-.11h1.78l.59.27.27.32.27.76-.11.43-.11.54-.27.54.27.54-.22.54-.32.59-.11.49.05.65.05.54-.32.59v.54l-.05.11h1.46l.54-.05h.59l1.24-.11.32.05.81-.11h.43l.86.27.32.43.27.54.05.43-.16,1.03-.27.49-.27.38-.27.27-1.24.05-.43-.05h-.7l-.76-.11h-.59l-.43.05-1.62-.05-.49-.05h-.11v.22l-.11.54-.22.54-.27.54.16.54v.59l-.27.49-.16.59v.49l-.05.54v.59l-.16,1.03-.22.54.05.49-.11.54-.22.59-.16.54v1.08l-.32.49-.16.54-.05.49v.59l-.11.49.05.54-.38.54-.05.54-.11.54-.05.49v1.08l-.27.59-.11.49-.05.49.16,1.08.22.49.49.11.7.05h1.24l.65-.11.59-.05.59-.11.43-.22.54-.11.38-.22,1.13-.54.27-.16.59-.38.27-.22.7-.32.27-.38.43-.32.59-.43.32-.32.27-.43.38-.43.27-.43.59-.49.38-.38.32-.49v-.43l.38-.49.43-.49.16-.49.76-.38.65.16.32.22.38.38.54.38.05.43Z"/><path class="cls-1" d="m255.97,85.69l-.49-.22-.54-.16-.7-.32-.43-.38-.22-.27-.38-.43-.54-.38-.32-.43-.54-.43-.27-.54-.11-.43-.43-.49-.05-.54-.11-.59.11-.97.32-.49-.16-.49.22-.54.16-.65.16-.49-.05-.54.05-.54.11-.54.11-.59.22-.49v-.59l.11-.49-.16-.54.22-.54.11-.54.16-.54.05-.54-.11-.54.32-1.08v-.43l.27-.59-.11-.54.22-.54-.05-.54.38-.49.11-.49-.16-1.13-1.13-.16-.54-.05-.49.05-.49-.05-.59.05-.49-.05h-.54l-.43.05-.76-.05h-.65l-.32.54-.16.59-.22.49.22.59-.43.54.05.54v.49l-.16.54.05.54-.38.54.16.54-.38.49-.27.54.22.54-.43.54-.16.43.05.54-.27.49-.22.49-.27.54-.38.54.05.49-.49.49-.05.38-.81.92-.05.49-.54.49-.27.43-.65.76-.32.49-.27.38-.49.38-.38.38-.22.38-.65.32-.81.49-.54.05-.49-.16-.54-.16-.54-.32-.27-.49-.05-.43.7-.86.22-.49.59-.38.16-.38.32-.43.76-.76.43-.38.22-.43.27-.49.11-.43.38-.49.49-.43.05-.43.05-.49.54-.49.05-.49.32-.49.16-.54-.16-.49.49-.54.05-.59-.05-.54.16-.49.11-.54.11-1.08.43-.59-.27-.54.32-.54.05-.54-.11-.54.16-.65-.49-.86-.22-.38-.65-.32-.32-.38-.49-.43-.11-.49-.38-.54.32-.97.32-.59.11-.49.27-.49-.16-.49.38-.54.32-.49.27-.49.05-.43.43-.38.32-.16.49-.16h1.13l1.08.05h.7l.38.22.7.32.32.32.32.43v.54l.38.49-.11.54.27.59-.27.54.05.59-.27.43.27.54h2.86l.38.05.54-.05h1.84l.38.05.38-.05h2.43l.97.11.27.11.81.16.32.27.38.32v.54l.22.43-.05,1.08-.05.49-.27.54.05.59-.05.54-.16.49-.05.59-.38.49-.05.54.11.54-.22.59.11.49-.22.59-.22.54-.11.54.11.54-.38.54.11.54-.22.54v.49l-.32.54v.54l-.16.59.22.54-.16.54-.32.49-.05.54-.16.54.16.54-.22,1.08-.32.49.05.59-.22,1.08.38.49,1.13.05.32-.16.7-.16.49-.27.38-.27.49-.32.54-.32.22-.32.59-.38.43-.43.22-.38.65-.38.16-.38.59-.38.32-.49.43-.43.05-.43.32-.38.43-.43.38-.43.27-.49.27-.43.59-.43.22-.43.59-.27.81.11.22.27.49.43.11.86.05.59-.22.54-.32.97-.49.38-.11.49-.81.86-.22.49-.59.38-.43.43-.22.32-.32.38-.38.49-.32.38-.7.38-.16.32-.65.32-.16.43-.38.32-.59.27-.38.38-.38.27-.49.32-.43.22-.54.22-1.29.49-.27.11-.76.11-.22.05-1.35.05-.27-.22Z"/><path class="cls-1" d="m295.06,71.87v.59l-.27,1.08-.16.54.11.54-.22.43-.43.54-.22.49-.11.43-.38.54-.11.38-.22.49-.43.49-.22.43-.49.38v.43l-.65.43-.11.32-.54.43-.49.38-.11.27-.38.38-.43.38-.92.59-.7.32-.43.27-.38.27-.27.27-.49.32-.59.22-.59.16-.32.22-.49.22-.54.27-.59.16-.54.11-.65.22-.38.05-.54.16-.49.11-.65.11-.59.05-.54.11h-.54l-.38.05-.49.11-.49-.05-1.13.05-1.24-.11-.54-.16-.59-.05-.43-.11-.59-.16-.43-.22-.54-.22-.59-.22-.86-.54-.54-.27-.32-.32-.38-.32-.27-.43-.7-.38-.27-.32-.43-.43-.16-.43-.43-.38-.27-.49-.16-.49-.59-.43-.22-.54v-.43l-.32-1.03-.38-.65.11-1.19.22-.54-.11-.43-.05-.54.05-.59.11-.54.38-.49.05-.54.27-.49-.16-.54.38-.43.22-.59.11-.43.11-.49.38-.49.32-.54.22-.43.05-.49.16-.54.43-.49.05-.38.32-.49.38-.43.27-.49.43-.43.11-.43.59-.49.05-.38.49-.49.43-.38.11-.38.65-.43.27-.38.49-.32.32-.38.32-.32.49-.43.59-.59.49-.32.54-.22.43-.27,1.08-.49.54.05,1.19.27.7.11.54.16.32.22.49.05.65.16.7.16.43.16.65.11.43.22.38.16.59.16,1.19.27.54.22.49.27.32.27.22.38.38.49.32.86.32.54-.16.54.22.54-.16,1.13.05.49.05.54-.22.54-.11.49-.11.59-.16.43-.32.49-.22.49-.27.49-.27.43-.32.49-.49.38-.11.38-.54.38-.43.38-.38.38-.16.38-.65.27-.38.32-.32.38-1.19.49-.22.32-.65.22-.27.27-.65.16-.49.22-.54.16-.32.27-.97.32-.54.16-1.24.27-.59.11-.32.11-.76.11-.86.16-.49.05h-.54l-.76.05h-.76l-.22.54.11.54-.05.54-.16,1.03.22.54v.59l.32.49.22.38.76.86.38.27.65.22.54.11.22.11h1.67l.81-.05h.22l.86-.05.54-.16h.43l.65-.16.38-.11.32-.16.86-.11.97-.32.38-.22.65-.16.32-.27.38-.16.81-.27.49-.22.16-.27.43-.27.76-.22.43-.38.32-.27.49-.27.22-.38.65-.27.22-.32.49-.43.49-.32.38-.32.38-.43.54-.32.11-.43.65-.38.22-.49.22-.32.22-.49.43-.38.43-.49.22-.43.38-.49.05-.43.27-.49.43-.43.7-.38.38.38.54.38Zm-24.73,3.4l.32-.11,1.3-.32.59-.16.38-.11.32-.16.7-.22.32-.22.81-.22.49-.22.43-.22.38-.22.59-.27.27-.27.65-.22.32-.38.59-.32.27-.27.43-.32.65-.43.16-.32.32-.49.54-.38.05-.49.22-.43.22-.49.49-.54-.05-.49.22-.54-.16-.59.27-.49-.05-1.13.05-.59-.05-.59-.27-.54-.22-.54-.7-.43-.32.11-.43.22-.43.16-.59.27-.65.22-.16.27-.49.27-1.08.76-.16.32-.59.38-.11.38-.65.38-.32.38-.43.43-.22.43-.22.49-.32.49-.32.43-.38.43-.11.49-.49.49-.11.49-.32.49v.43l-.32.49-.16.54-.38.43v.54l-.43.49.11.54-.32.54v.54l-.43.43Z"/><path class="cls-1" d="m320.06,71.87v.59l-.27,1.08-.16.54.11.54-.22.43-.43.54-.22.49-.11.43-.38.54-.11.38-.22.49-.43.49-.22.43-.49.38v.43l-.65.43-.11.32-.54.43-.49.38-.11.27-.38.38-.43.38-.92.59-.7.32-.43.27-.38.27-.27.27-.49.32-.59.22-.59.16-.32.22-.49.22-.54.27-.59.16-.54.11-.65.22-.38.05-.54.16-.49.11-.65.11-.59.05-.54.11h-.54l-.38.05-.49.11-.49-.05-1.13.05-1.24-.11-.54-.16-.59-.05-.43-.11-.59-.16-.43-.22-.54-.22-.59-.22-.86-.54-.54-.27-.32-.32-.38-.32-.27-.43-.7-.38-.27-.32-.43-.43-.16-.43-.43-.38-.27-.49-.16-.49-.59-.43-.22-.54v-.43l-.32-1.03-.38-.65.11-1.19.22-.54-.11-.43-.05-.54.05-.59.11-.54.38-.49.05-.54.27-.49-.16-.54.38-.43.22-.59.11-.43.11-.49.38-.49.32-.54.22-.43.05-.49.16-.54.43-.49.05-.38.32-.49.38-.43.27-.49.43-.43.11-.43.59-.49.05-.38.49-.49.43-.38.11-.38.65-.43.27-.38.49-.32.32-.38.32-.32.49-.43.59-.59.49-.32.54-.22.43-.27,1.08-.49.54.05,1.19.27.7.11.54.16.32.22.49.05.65.16.7.16.43.16.65.11.43.22.38.16.59.16,1.19.27.54.22.49.27.32.27.22.38.38.49.32.86.32.54-.16.54.22.54-.16,1.13.05.49.05.54-.22.54-.11.49-.11.59-.16.43-.32.49-.22.49-.27.49-.27.43-.32.49-.49.38-.11.38-.54.38-.43.38-.38.38-.16.38-.65.27-.38.32-.32.38-1.19.49-.22.32-.65.22-.27.27-.65.16-.49.22-.54.16-.32.27-.97.32-.54.16-1.24.27-.59.11-.32.11-.76.11-.86.16-.49.05h-.54l-.76.05h-.76l-.22.54.11.54-.05.54-.16,1.03.22.54v.59l.32.49.22.38.76.86.38.27.65.22.54.11.22.11h1.67l.81-.05h.22l.86-.05.54-.16h.43l.65-.16.38-.11.32-.16.86-.11.97-.32.38-.22.65-.16.32-.27.38-.16.81-.27.49-.22.16-.27.43-.27.76-.22.43-.38.32-.27.49-.27.22-.38.65-.27.22-.32.49-.43.49-.32.38-.32.38-.43.54-.32.11-.43.65-.38.22-.49.22-.32.22-.49.43-.38.43-.49.22-.43.38-.49.05-.43.27-.49.43-.43.7-.38.38.38.54.38Zm-24.73,3.4l.32-.11,1.3-.32.59-.16.38-.11.32-.16.7-.22.32-.22.81-.22.49-.22.43-.22.38-.22.59-.27.27-.27.65-.22.32-.38.59-.32.27-.27.43-.32.65-.43.16-.32.32-.49.54-.38.05-.49.22-.43.22-.49.49-.54-.05-.49.22-.54-.16-.59.27-.49-.05-1.13.05-.59-.05-.59-.27-.54-.22-.54-.7-.43-.32.11-.43.22-.43.16-.59.27-.65.22-.16.27-.49.27-1.08.76-.16.32-.59.38-.11.38-.65.38-.32.38-.43.43-.22.43-.22.49-.32.49-.32.43-.38.43-.11.49-.49.49-.11.49-.32.49v.43l-.32.49-.16.54-.38.43v.54l-.43.49.11.54-.32.54v.54l-.43.43Z"/><path class="cls-1" d="m338.1,75.43l-.32.49-.32.54-.05.43-.32.43-.32.49-.76.92-.32.43-.27.38-.38.43-.32.43-.65.32-.22.43-.49.38-.43.32-.49.43-.32.27-.54.32-.43.27-.22.38-.81.27-.43.27-.54.22-.38.22-.54.27-.38.16-.49.16-.65.16-.54.16-.49.22-.59.11-.65.05-.43.11-.54.05-.92-.05-.54-.16-.7-.11-.49-.22-.38-.16-1.08-.59-.22-.27-.7-.32-.27-.32-.86-.86-.16-.32-.59-.43v-.54l-.49-.43.11-.54-.16-.49.11-.92-.05-.54.11-.43.38-.54.05-.49-.16-.59.22-.54.11-.54.05-.49.27-.59-.11-.59.16-.49v-.54l.43-.54-.22-.59.22-.54.22-.43-.05-.59.05-.54.27-.49-.16-.59.22-.49v-.59l.32-.49-.11-.54.11-.49.16-.59v-.49l.05-.59.22-.49v-.54l.27-.54.05-.49-.05-.54.11-.54.16-.49.16-.59.22-.54-.11-.49v-.54l.59-1.62-.11-.49v-.49l.11-.54.16-.59v-.54l.05-.11h-.38l-.65-.05-1.13-.16h-1.13l-.54-.05-.32-.11h-1.73l-.7-.05h-.27l-.54-.11h-.59l-.76-.05-.38.05-.43-.05-.81-.05-.43-.05-.43.05-.59-.05h-.59l-.43-.05-.43.05h-.7l-.38-.05h-.59l-.54-.05-.54.05-.81-.05-.54.05h-1.35l-.54-.05h-.7l-.65.11h-.27l-.86-.05-.32.05-.76.05h-.22l-.59.05h-.76l-.27.05-.76.11-.65.05-.43.05-.65.05h-1.4l-.27-.38.27-.86.22-.54.11-.49.27-.43.22-.54.49-.43.22-.43.22-.38.54-.43.22-.32.59-.38.86-.11h.76l.59.05.32.11.49.05.65.05h1.13l.54.05.49.11.7.05.27.05.65.05.49.05.43.11.59.11.7.05.32.05,1.24.11.54.05.38.11.86.05.49.11.54.11.49.05.32.05.76.11.59.05.22.11.54.11.86.05.43.05.65.11.32.11.49.05.65.11h.43l.76.11,1.08.11.49.16.49.05h.54l.32.16.7.05.43.05h.43v-.16l.27-.54-.11-.59.22-.54v-.49l-.11-.54.32-1.08v-.54l.43-.49.27-.38.27-.43.49-.32.38-.27.76-.16.32-.16,1.13-.05.49-.05.7.11.65.05.32.38.22.38-.38.43-.05.54-.11.54v.54l-.11.65-.22.49.05.65.05.54-.05.54-.43.54.05.59-.05.32h2l.65.05.43-.05h1.13l.86-.11.54-.11,1.24-.27.32-.22,1.13.27-.05.43.49.59-.16.54.05.49.05,1.08-.38.43-.32.27-.43.22-.81.05-.38.05-1.35-.16-.97-.16-.38-.11h-.54l-.65-.05-.54-.11-.54-.05-.7-.11h-.43l-.38-.05-.49-.05v.11l.05.54-.05.54-.27.59-.27.49.11.59-.22.54-.05.54-.11.49-.22.59.16.49-.32.59v.54l-.16.54-.05,1.08-.16.54-.05.54-.27.49.16.49-.49,1.62.05.59-.05.54-.32.49.05.49-.16.59-.16.49.16.54-.38.54.11.54-.16.49-.16.59-.22.49-.05.59-.05.49v.59l-.05.43-.32.59-.05.54.05.49-.05.59-.16.49-.11.59-.22.43.16.54-.27,1.08-.05.59.32.43.32.38.38.22.38.16h1.3l.22-.11h.54l.7-.11.27-.11,1.19-.32.49-.22.54-.27.54-.22.16-.22.54-.38.59-.27.27-.32.43-.38.59-.27.43-.43.27-.38.65-.43.05-.38.7-.43.16-.43.38-.43.49-.49.16-.49.32-.43.16-.49.54-.54.65-.32.59.16.43.27.16.27.54.38-.16.49.22.54Z"/></g><path class="cls-1" d="m532.18,239.85v-23.95c0-4.79.33-4.37-3.31-4.37h-44.53c-.43,0-.92,0-1.59,0h-86.67c-.43,0-.92,0-1.59,0h-105.63c-.21.02-.39.04-.56.06-.49-.09-1.21-.06-2.33-.06h-44.53c-.43,0-.92,0-1.59,0h-86.67c-.43,0-.92,0-1.59,0H45.96q-1.98.21-1.98,2.5c-.16,8.96,0,18.12-.16,27.29,0,1.46.33,2.5,1.82,2.29.66-.21,1.32,0,1.82,0h239.02c.65,0,1.12,0,1.5-.04.18.02.34.07.57.04.66-.21,1.32,0,1.82,0h239.02c3.14,0,2.81,0,2.81-3.75Zm-414.81-18.12c.33-.21.83,0,.83.62,0,.21-.16.63-.33.83-1.49,1.25-2.98,1.25-5.12-.62,1.82-.83,3.31-.21,4.63-.83Zm-25.95.42c.33,0,.83,0,.99.83,0,.62-.5.83-.99,1.04-.33,0-.83-.42-.83-1.04-.16-.63.33-.83.83-.83Zm-4.63,2.29c.17-.42.66-.42.99-.42.99.21,1.49.83,2.15,2.08-1.16.42-1.82,0-2.64-.42-.33-.21-.66-.63-.5-1.25Zm-9.42-6.87c.5,0,.99.42.83,1.04-.16.42-.66.42-.99.21-.33,0-.66-.21-.66-.83.17-.42.5-.62.83-.42Zm-2.48,5.21c.5-.62,1.16-.83,1.82-.62.5.21,1.16.62,1.16,1.25,0,1.25-.83.62-1.32.83-.66,0-1.32.21-1.82-.42,0-.21,0-.83.17-1.04Zm-2.48.63c.33,0,.66.21.66.83-.17.83-.66,1.04-1.16,1.25-.5-.21-.83-.42-.83-.83,0-1.25.66-1.25,1.32-1.25Zm-2.98,10c.33,0,.66,0,.66.62.17.63-.33.63-.66.83-.5-.21-.83-.21-.83-.83s.5-.62.83-.62Zm-4.13-10.83c.33,0,.5.42.5.62,0,1.04-.5,1.25-1.32,1.46-.16-.21-.33-.21-.5-.42-.17-.42.83-1.67,1.32-1.67Zm-1.49,10.41c.33,0,.66.21.66.62-.16.42-.33.42-.66.42-.33-.21-.5-.42-.5-.83,0-.21.33-.21.5-.21Zm-6.94-3.33c-.5,0-.83-.21-.99-.83,0-.42.33-.63.66-.63.5,0,.99.21.99.83,0,.42-.33.63-.66.63Zm20.99,6.25c-1.49,0-2.48.62-2.98,2.5-.17.42-.99.83-1.32.83-1.98-.21-3.97,1.87-5.79,0-.16-.21-.5-.21-.83-.21q-1.82.21-3.64-1.25c2.64-.63,4.79-.63,6.94-.21.66.21,1.32.21,1.98,0q1.49-.62.99-2.92c-.33-.83-.16-1.25.5-1.25,1.32,0,2.65.21,3.97.21.5.21.99.42.99,1.25,0,.63-.5,1.04-.83,1.04Zm11.08,4.17h-4.79c.33-1.67.5-2.71,2.15-2.08.99.63,2.15.21,3.31-.21,1.16-.63,2.31-.63,3.31.62-1.32.21-2.48,1.46-3.97,1.67Zm7.77-13.33c-.5.21-.66-.21-.83-.62,0-.42,0-.83.5-.83.33-.21.5.21.66.62,0,.42,0,.83-.33.83Zm5.12,13.12q1.16-1.67,2.81,0c-1.16.42-1.98.62-2.81,0Zm25.79-3.75c-3.31-.21-6.45.63-9.59-1.04-.66-.42-1.49-.21-2.15-.21h-3.97c-.66,0-1.49,0-1.49-1.04-.16-1.04,1.16-2.08,1.82-1.67,1.82.83,3.31.63,4.79-.42.5-.42,1.16-.21,1.49.42.83,1.46,1.98,1.46,3.31,1.46h5.45c.99,0,1.98-.21,2.65,1.04-.66,1.46-1.49,1.46-2.31,1.46Zm47.43-11.66c.17-.42.66-.42.99-.42.99.21,1.49.83,2.15,2.08-1.16.42-1.82,0-2.64-.42-.33-.21-.66-.63-.5-1.25Zm-9.42-6.87c.5,0,.99.42.83,1.04-.16.42-.66.42-.99.21-.33,0-.66-.21-.66-.83.17-.42.5-.62.83-.42Zm-2.48,5.21c.5-.62,1.16-.83,1.82-.62.5.21,1.16.62,1.16,1.25,0,1.25-.83.62-1.32.83-.66,0-1.32.21-1.82-.42,0-.21,0-.83.17-1.04Zm-2.48.63c.33,0,.66.21.66.83-.17.83-.66,1.04-1.16,1.25-.5-.21-.83-.42-.83-.83,0-1.25.66-1.25,1.32-1.25Zm-2.98,10c.33,0,.66,0,.66.62.17.63-.33.63-.66.83-.5-.21-.83-.21-.83-.83s.5-.62.83-.62Zm8.43,2.5c-1.49,0-2.48.62-2.98,2.5-.17.42-.99.83-1.32.83-1.98-.21-3.97,1.87-5.79,0-.16-.21-.5-.21-.83-.21-.12.01-.21.02-.31.03v-1.75c1.26-.06,2.44.03,3.62.26.66.21,1.32.21,1.98,0q1.49-.62.99-2.92c-.33-.83-.16-1.25.5-1.25,1.32,0,2.65.21,3.97.21.5.21.99.42.99,1.25,0,.63-.5,1.04-.83,1.04Zm12.08,3.86c-.32.14-.65.25-1,.3h-4.79c.33-1.67.5-2.71,2.15-2.08.99.63,2.15.21,3.31-.21.12-.06.24-.09.35-.14,0,.71,0,1.42-.01,2.13Zm20.49-5.94s0,0,0-.01c-.03-.17,0-.33.04-.5.05.09.13.16.13.29-.05.13-.11.16-.16.22Zm5.12,1.03c-.5-.21-.83-.21-.83-.83s.5-.62.83-.62.66,0,.66.62c.17.63-.33.63-.66.83Zm8.43,1.04c-.47,0-.87.09-1.24.23-1.07-.02-2.13-.14-3.18-.46-.05-.28-.12-.61-.21-1.03-.33-.83-.16-1.25.5-1.25.04,0,.07,0,.11,0,.57.19,1.2.2,1.88.2h1.98c.5.21.99.42.99,1.25,0,.63-.5,1.04-.83,1.04Zm12.73,3.54c-.07-.12-.14-.24-.17-.41,0-1.25.99-1.04,1.65-1.04.09,0,.25.06.51.12.11.1.22.17.32.29-.79.13-1.53.61-2.31,1.04Zm50.41-16.45q0,1.46-.99,2.92-.33-1.87.99-2.92Zm-4.79,5.83c.5,0,.83.42.66,1.04,0,.62-.33,1.04-.83.83-.33,0-.5-.21-.5-.83s.16-1.04.66-1.04Zm-1.98-7.92c.5,0,1.16.21,1.16,1.04,0,1.04-.83,1.25-1.49,1.46-.5-.21-1.16-.42-1.16-1.04,0-1.25.66-1.46,1.49-1.46Zm-16.86.83c.33-.21.83,0,.83.62,0,.21-.16.63-.33.83-1.49,1.25-2.98,1.25-5.12-.62,1.82-.83,3.31-.21,4.63-.83Zm10.25,14.37c-3.31-.21-6.45.63-9.59-1.04-.66-.42-1.49-.21-2.15-.21h-3.97c-.66,0-1.49,0-1.49-1.04-.16-1.04,1.16-2.08,1.82-1.67,1.82.83,3.31.63,4.79-.42.5-.42,1.16-.21,1.49.42.83,1.46,1.98,1.46,3.31,1.46h5.45c.99,0,1.98-.21,2.65,1.04-.66,1.46-1.49,1.46-2.31,1.46Zm4.63-.83c-.33-.42-.16-.83.17-.83,1.32-.42,2.81-1.46,4.63,0-1.49,1.46-2.98,1.04-4.3,1.46-.17,0-.5-.42-.5-.63Zm13.06,4.58c-.99.21-1.98.21-3.14,0-1.32-.21-2.64-.42-4.13,0-.66.21-1.32,0-1.49-.83,0-1.25.99-1.04,1.65-1.04.17,0,.5.21,1.32.21,1.49.21,3.31-.83,5.29-1.46,1.16-.42,1.65,0,1.98,1.46s-.66,1.67-1.49,1.67Zm1.16-7.5c-.83.21-1.49.62-2.15.83-.99-.21-1.82-.42-2.65-.83-.33,0-.5-.42-.5-1.04,0-.42.5-.83.66-.62,1.49.62,2.81.42,4.3,0,.33-.21.66.21.83.62,0,.42-.16.83-.5,1.04Zm.16-11.25c-.66.63-1.32.83-1.82.21-.66-.83-.99-1.67-.66-2.71.17-.63.83-1.04.99-.63.5,1.25,1.65.63,2.31,1.04.17,1.25-.5,1.67-.83,2.08Zm3.14,2.5c-.5-.21-1.16-.21-1.16-1.25.16-.62.5-.83.83-.62.5.21,1.16,0,1.16,1.25,0,.42-.5.42-.83.62Zm76.13-1.87c.33-.21.83,0,.83.62,0,.21-.16.63-.33.83-1.49,1.25-2.98,1.25-5.12-.62,1.82-.83,3.31-.21,4.63-.83Zm-25.95.42c.33,0,.83,0,.99.83,0,.62-.5.83-.99,1.04-.33,0-.83-.42-.83-1.04-.16-.63.33-.83.83-.83Zm-4.63,2.29c.17-.42.66-.42.99-.42.99.21,1.49.83,2.15,2.08-1.16.42-1.82,0-2.64-.42-.33-.21-.66-.63-.5-1.25Zm-9.42-6.87c.5,0,.99.42.83,1.04-.16.42-.66.42-.99.21-.33,0-.66-.21-.66-.83.17-.42.5-.62.83-.42Zm-2.48,5.21c.5-.62,1.16-.83,1.82-.62.5.21,1.16.62,1.16,1.25,0,1.25-.83.62-1.32.83-.66,0-1.32.21-1.82-.42,0-.21,0-.83.17-1.04Zm-2.48.63c.33,0,.66.21.66.83-.17.83-.66,1.04-1.16,1.25-.5-.21-.83-.42-.83-.83,0-1.25.66-1.25,1.32-1.25Zm-2.98,10c.33,0,.66,0,.66.62.17.63-.33.63-.66.83-.5-.21-.83-.21-.83-.83s.5-.62.83-.62Zm-4.13-10.83c.33,0,.5.42.5.62,0,1.04-.5,1.25-1.32,1.46-.16-.21-.33-.21-.5-.42-.17-.42.83-1.67,1.32-1.67Zm-1.49,10.41c.33,0,.66.21.66.62-.16.42-.33.42-.66.42-.33-.21-.5-.42-.5-.83,0-.21.33-.21.5-.21Zm-6.94-3.33c-.5,0-.83-.21-.99-.83,0-.42.33-.63.66-.63.5,0,.99.21.99.83,0,.42-.33.63-.66.63Zm20.99,6.25c-1.49,0-2.48.62-2.98,2.5-.17.42-.99.83-1.32.83-1.98-.21-3.97,1.87-5.79,0-.16-.21-.5-.21-.83-.21q-1.82.21-3.64-1.25c2.64-.63,4.79-.63,6.94-.21.66.21,1.32.21,1.98,0q1.49-.62.99-2.92c-.33-.83-.16-1.25.5-1.25,1.32,0,2.65.21,3.97.21.5.21.99.42.99,1.25,0,.63-.5,1.04-.83,1.04Zm11.08,4.17h-4.79c.33-1.67.5-2.71,2.15-2.08.99.63,2.15.21,3.31-.21,1.16-.63,2.31-.63,3.31.62-1.32.21-2.48,1.46-3.97,1.67Zm7.77-13.33c-.5.21-.66-.21-.83-.62,0-.42,0-.83.5-.83.33-.21.5.21.66.62,0,.42,0,.83-.33.83Zm5.12,13.12q1.16-1.67,2.81,0c-1.16.42-1.98.62-2.81,0Zm25.79-3.75c-3.31-.21-6.45.63-9.59-1.04-.66-.42-1.49-.21-2.15-.21h-3.97c-.66,0-1.49,0-1.49-1.04-.16-1.04,1.16-2.08,1.82-1.67,1.82.83,3.31.63,4.79-.42.5-.42,1.16-.21,1.49.42.83,1.46,1.98,1.46,3.31,1.46h5.45c.99,0,1.98-.21,2.65,1.04-.66,1.46-1.49,1.46-2.31,1.46Zm47.43-11.66c.17-.42.66-.42.99-.42.99.21,1.49.83,2.15,2.08-1.16.42-1.82,0-2.64-.42-.33-.21-.66-.63-.5-1.25Zm-9.42-6.87c.5,0,.99.42.83,1.04-.16.42-.66.42-.99.21-.33,0-.66-.21-.66-.83.17-.42.5-.62.83-.42Zm-2.48,5.21c.5-.62,1.16-.83,1.82-.62.5.21,1.16.62,1.16,1.25,0,1.25-.83.62-1.32.83-.66,0-1.32.21-1.82-.42,0-.21,0-.83.17-1.04Zm-2.48.63c.33,0,.66.21.66.83-.17.83-.66,1.04-1.16,1.25-.5-.21-.83-.42-.83-.83,0-1.25.66-1.25,1.32-1.25Zm-2.98,10c.33,0,.66,0,.66.62.17.63-.33.63-.66.83-.5-.21-.83-.21-.83-.83s.5-.62.83-.62Zm8.43,2.5c-1.49,0-2.48.62-2.98,2.5-.17.42-.99.83-1.32.83-1.98-.21-3.97,1.87-5.79,0-.16-.21-.5-.21-.83-.21-.12.01-.21.02-.31.03v-1.75c1.26-.06,2.44.03,3.62.26.66.21,1.32.21,1.98,0q1.49-.62.99-2.92c-.33-.83-.16-1.25.5-1.25,1.32,0,2.65.21,3.97.21.5.21.99.42.99,1.25,0,.63-.5,1.04-.83,1.04Zm12.08,3.86c-.32.14-.65.25-1,.3h-4.79c.33-1.67.5-2.71,2.15-2.08.99.63,2.15.21,3.31-.21.12-.06.24-.09.35-.14,0,.71,0,1.42-.01,2.13Zm20.49-5.94s0,0,0-.01c-.03-.17,0-.33.04-.5.05.09.13.16.13.29-.05.13-.11.16-.16.22Zm5.12,1.03c-.5-.21-.83-.21-.83-.83s.5-.62.83-.62.66,0,.66.62c.17.63-.33.63-.66.83Zm8.43,1.04c-.47,0-.87.09-1.24.23-1.07-.02-2.13-.14-3.18-.46-.05-.28-.12-.61-.21-1.03-.33-.83-.16-1.25.5-1.25.04,0,.07,0,.11,0,.57.19,1.2.2,1.88.2h1.98c.5.21.99.42.99,1.25,0,.63-.5,1.04-.83,1.04Zm12.73,3.54c-.07-.12-.14-.24-.17-.41,0-1.25.99-1.04,1.65-1.04.09,0,.25.06.51.12.11.1.22.17.32.29-.79.13-1.53.61-2.31,1.04Zm50.41-16.45q0,1.46-.99,2.92-.33-1.87.99-2.92Zm-4.79,5.83c.5,0,.83.42.66,1.04,0,.62-.33,1.04-.83.83-.33,0-.5-.21-.5-.83s.16-1.04.66-1.04Zm-1.98-7.92c.5,0,1.16.21,1.16,1.04,0,1.04-.83,1.25-1.49,1.46-.5-.21-1.16-.42-1.16-1.04,0-1.25.66-1.46,1.49-1.46Zm-16.86.83c.33-.21.83,0,.83.62,0,.21-.16.63-.33.83-1.49,1.25-2.98,1.25-5.12-.62,1.82-.83,3.31-.21,4.63-.83Zm10.25,14.37c-3.31-.21-6.45.63-9.59-1.04-.66-.42-1.49-.21-2.15-.21h-3.97c-.66,0-1.49,0-1.49-1.04-.16-1.04,1.16-2.08,1.82-1.67,1.82.83,3.31.63,4.79-.42.5-.42,1.16-.21,1.49.42.83,1.46,1.98,1.46,3.31,1.46h5.45c.99,0,1.98-.21,2.65,1.04-.66,1.46-1.49,1.46-2.31,1.46Zm4.63-.83c-.33-.42-.16-.83.17-.83,1.32-.42,2.81-1.46,4.63,0-1.49,1.46-2.98,1.04-4.3,1.46-.17,0-.5-.42-.5-.63Zm13.06,4.58c-.99.21-1.98.21-3.14,0-1.32-.21-2.64-.42-4.13,0-.66.21-1.32,0-1.49-.83,0-1.25.99-1.04,1.65-1.04.17,0,.5.21,1.32.21,1.49.21,3.31-.83,5.29-1.46,1.16-.42,1.65,0,1.98,1.46s-.66,1.67-1.49,1.67Zm1.16-7.5c-.83.21-1.49.62-2.15.83-.99-.21-1.82-.42-2.65-.83-.33,0-.5-.42-.5-1.04,0-.42.5-.83.66-.62,1.49.62,2.81.42,4.3,0,.33-.21.66.21.83.62,0,.42-.16.83-.5,1.04Zm.16-11.25c-.66.63-1.32.83-1.82.21-.66-.83-.99-1.67-.66-2.71.17-.63.83-1.04.99-.63.5,1.25,1.65.63,2.31,1.04.17,1.25-.5,1.67-.83,2.08Zm3.14,2.5c-.5-.21-1.16-.21-1.16-1.25.16-.62.5-.83.83-.62.5.21,1.16,0,1.16,1.25,0,.42-.5.42-.83.62Z"/></svg>