<?xml version="1.0" encoding="UTF-8"?><svg id="Layer_1" xmlns="http://www.w3.org/2000/svg" viewBox="0 0 432 432"><path d="m293.09,167.48c-1.73-4.44-3.79-7.62-7.12-10.95-3.33-3.33-6.5-5.4-10.95-7.12-3.36-1.3-8.4-2.85-17.68-3.28-10.04-.46-13.05-.55-38.47-.55s-28.43.1-38.47.55c-9.28.42-14.32,1.97-17.68,3.28-4.44,1.73-7.62,3.79-10.95,7.12-3.33,3.33-5.4,6.5-7.12,10.95-1.3,3.36-2.85,8.4-3.28,17.68-.46,10.04-.55,13.05-.55,38.47s.1,28.43.55,38.47c.42,9.28,1.98,14.32,3.28,17.68,1.73,4.44,3.79,7.62,7.12,10.95,3.33,3.33,6.5,5.4,10.95,7.12,3.36,1.3,8.4,2.85,17.68,3.28,10.04.46,13.05.56,38.47.56s28.44-.1,38.47-.56c9.28-.42,14.32-1.97,17.68-3.28,4.44-1.73,7.62-3.79,10.95-7.12,3.33-3.33,5.4-6.5,7.12-10.95,1.3-3.36,2.85-8.4,3.28-17.68.46-10.04.56-13.05.56-38.47s-.1-28.43-.56-38.47c-.42-9.28-1.97-14.32-3.28-17.68Zm-74.23,105.05c-27,0-48.89-21.89-48.89-48.89s21.89-48.89,48.89-48.89,48.89,21.89,48.89,48.89-21.89,48.89-48.89,48.89Zm50.83-88.29c-6.31,0-11.43-5.11-11.43-11.43s5.12-11.43,11.43-11.43,11.43,5.12,11.43,11.43-5.12,11.43-11.43,11.43Z"/><path d="m346.14,118.6s-73.15-7.11-126.83-60.8c-51.9,51.9-126.83,60.8-126.83,60.8-71.24,209.79,126.83,270.88,126.83,270.88,0,0,195.4-50.63,126.83-270.88Zm-32.63,144.3c-.46,10.13-2.07,17.06-4.43,23.11-2.43,6.26-5.69,11.57-10.98,16.86-5.29,5.29-10.6,8.55-16.86,10.98-6.06,2.35-12.98,3.96-23.11,4.43-10.16.46-13.4.57-39.26.57s-29.1-.11-39.26-.57c-10.13-.46-17.06-2.07-23.11-4.43-6.26-2.43-11.57-5.69-16.86-10.98s-8.55-10.6-10.98-16.86c-2.35-6.06-3.96-12.98-4.43-23.11-.46-10.16-.57-13.4-.57-39.26s.11-29.1.57-39.26c.46-10.13,2.07-17.06,4.43-23.11,2.43-6.26,5.69-11.57,10.98-16.86,5.29-5.29,10.6-8.55,16.86-10.98,6.06-2.35,12.98-3.96,23.11-4.43,10.16-.46,13.4-.57,39.26-.57s29.1.11,39.26.57c10.13.46,17.06,2.07,23.11,4.43,6.26,2.43,11.57,5.69,16.86,10.98,5.29,5.29,8.55,10.6,10.98,16.86,2.35,6.06,3.96,12.98,4.43,23.11.46,10.16.57,13.4.57,39.26s-.11,29.1-.57,39.26Z"/><circle cx="218.87" cy="223.64" r="31.74"/></svg>