<?xml version="1.0" encoding="UTF-8"?><svg id="Layer_1" xmlns="http://www.w3.org/2000/svg" viewBox="0 0 432 432"><path d="m351.74,118.21s-73.15-7.11-126.83-60.8c-51.9,51.9-126.83,60.8-126.83,60.8-71.24,209.79,126.83,270.88,126.83,270.88,0,0,195.4-50.63,126.83-270.88Zm-36.65,61.11c.09,1.83.09,3.76.09,5.69,0,58.43-44.48,125.84-125.84,125.84h0c-24.95,0-48.24-7.34-67.6-19.99,3.49.46,6.97.64,10.55.64,20.73,0,39.81-7.06,54.94-18.89-19.35-.37-35.68-13.12-41.27-30.73,2.75.55,5.5.83,8.35.83,4.04,0,7.98-.55,11.65-1.56-20.27-4.13-35.5-21.92-35.5-43.38v-.55c5.96,3.3,12.75,5.32,19.99,5.5-11.92-7.89-19.72-21.46-19.72-36.78,0-8.07,2.2-15.68,5.96-22.2,21.83,26.78,54.39,44.39,91.17,46.23-.83-3.21-1.19-6.6-1.19-10.09,0-24.4,19.81-44.21,44.21-44.21,12.75,0,24.21,5.32,32.29,13.94,10.09-2.02,19.54-5.69,28.07-10.73-3.3,10.36-10.27,18.99-19.44,24.49,8.99-1.1,17.52-3.49,25.41-6.97-5.96,8.9-13.48,16.69-22.1,22.93Z"/></svg>