<?xml version="1.0" encoding="UTF-8"?><svg id="Layer_1" xmlns="http://www.w3.org/2000/svg" viewBox="0 0 323.67 230.72"><defs><style>.cls-1{fill:#7f3a00;}.cls-2{fill:#346600;}</style></defs><path class="cls-2" d="m14.98,165.6h3.74l13.08,33.53h-4.22l-3.5-9.05h-14.47l-3.5,9.05H1.78l13.18-33.53h.02Zm-3.89,20.64h11.5l-5.74-14.9-5.76,14.9Z"/><path class="cls-2" d="m62.31,182.38c0,9.67-6.17,16.78-16.58,16.78h-9.62v-33.53h9.62c10.39,0,16.58,7.08,16.58,16.78v-.02Zm-4.32,0c0-7.13-4.32-12.94-12.5-12.94h-5.38v25.87h5.38c8.18,0,12.5-5.81,12.5-12.94Z"/><path class="cls-2" d="m68.74,165.6h4.03v33.53h-4.03v-33.53Z"/><path class="cls-2" d="m81.29,165.6h8.71c6.65,0,11.21,3.94,11.21,9.91,0,7.94-7.22,9.43-8.18,9.58l9.29,14.04h-4.85l-9.05-13.7h-3.12v13.7h-4.03v-33.53h.02Zm15.91,9.91c0-3.7-2.45-6.07-6.94-6.07h-4.94v12.17h4.94c4.51,0,6.94-2.4,6.94-6.1Z"/><path class="cls-2" d="m138.82,182.38c0,9.67-6.89,17.33-16.58,17.33s-16.58-7.66-16.58-17.33,6.89-17.33,16.58-17.33,16.58,7.66,16.58,17.33Zm-4.32,0c0-7.13-4.94-13.51-12.26-13.51s-12.26,6.38-12.26,13.51,4.94,13.51,12.26,13.51,12.26-6.36,12.26-13.51Z"/><path class="cls-2" d="m148.73,165.6l17.95,26.83v-26.83h4.03v33.53h-4.18l-17.95-26.83v26.83h-4.03v-33.53h4.18Z"/><path class="cls-2" d="m204.77,182.38c0,9.67-6.17,16.78-16.58,16.78h-9.62v-33.53h9.62c10.39,0,16.58,7.08,16.58,16.78v-.02Zm-4.32,0c0-7.13-4.32-12.94-12.5-12.94h-5.38v25.87h5.38c8.18,0,12.5-5.81,12.5-12.94Z"/><path class="cls-2" d="m219.63,165.6h3.74l13.08,33.53h-4.22l-3.5-9.05h-14.47l-3.5,9.05h-4.32l13.18-33.53h.02Zm-3.89,20.64h11.5l-5.74-14.9-5.76,14.9Z"/><path class="cls-2" d="m263.94,172.81s-3.12-3.94-9.24-3.94c-7.27,0-12.26,6.38-12.26,13.51s4.99,13.51,12.26,13.51c6.1,0,9.67-4.46,9.67-4.46l2.74,2.78s-4.56,5.5-12.41,5.5c-9.67,0-16.58-7.66-16.58-17.33s6.89-17.33,16.58-17.33c7.85,0,12.02,5.11,12.02,5.11l-2.78,2.64h0Z"/><path class="cls-2" d="m276.01,181.37l13.56-15.77h5.14l-14.18,16.39,15.77,17.16h-5.47l-14.81-16.01v16.01h-4.03v-33.53h4.03v15.77-.02Z"/><path class="cls-2" d="m309.11,184.06c-4.9-2.26-9.19-4.51-9.19-10.2,0-3.94,3.26-8.81,9.67-8.81s9.53,4.9,9.53,4.9l-3.02,2.45s-2.35-3.5-6.5-3.5c-3.7,0-5.66,2.59-5.66,4.99,0,3.41,2.88,4.75,7.46,6.84,5.14,2.35,8.33,4.51,8.33,9.91s-4.51,9.1-10.39,9.1c-7.94,0-10.68-6.98-10.68-6.98l3.36-2.02s2.02,5.18,7.32,5.18c3.22,0,6.29-1.82,6.29-5.28s-2.78-4.85-6.5-6.55v-.02Z"/><path class="cls-1" d="m60.75,213.37l8.38,11.54v-11.54h2.88v16.78h-2.59l-8.38-11.52v11.52h-2.88v-16.78s2.59,0,2.59,0Z"/><path class="cls-1" d="m90.94,220.18h6.7v2.74h-6.7v4.51h7.42v2.74h-10.3v-16.78h10.15v2.74h-7.27v4.08-.02Z"/><path class="cls-1" d="m128.69,230.72l-5.04-12.58-5.11,12.58-6.6-17.33h3.26l3.55,10.06,3.82-10.06h2.38l3.74,10.06,3.65-10.06h3l-6.6,17.33h-.05Z"/><path class="cls-1" d="m176.24,230.14h-2.88v-6.6l-5.71-10.15h3.17l4.1,7.49,4.1-7.49h2.98l-5.74,10.15v6.6h-.02Z"/><path class="cls-1" d="m212.43,221.77c0,4.97-3.6,8.66-8.47,8.66s-8.47-3.72-8.47-8.66,3.6-8.66,8.47-8.66,8.47,3.72,8.47,8.66Zm-2.93,0c0-3.24-2.18-5.93-5.57-5.93s-5.57,2.71-5.57,5.93,2.18,5.95,5.57,5.95,5.57-2.71,5.57-5.95Z"/><path class="cls-1" d="m227.53,213.37h5.52c3.34,0,5.54,2.16,5.54,5.23,0,2.52-1.34,4.44-3.74,5.04l4.2,6.5h-3.36l-3.98-6.31h-1.32v6.31h-2.88v-16.78h.02Zm8.14,5.23c0-1.66-1.15-2.5-3-2.5h-2.28v4.99h2.28c1.85,0,3-.84,3-2.5Z"/><path class="cls-1" d="m256.86,220.9l6-7.51h3.6l-6.55,8.23,7.37,8.52h-3.82l-6.6-7.56v7.56h-2.88v-16.78h2.88v7.54Z"/><rect class="cls-2" y="204.58" width="323.67" height="3.17"/><polygon class="cls-1" points="286.52 145.11 187.28 32.04 174.29 52.11 167.76 47.88 186.34 19.18 292.38 139.97 286.52 145.11"/><polygon class="cls-2" points="238.4 144.89 137.86 12.82 37.3 144.89 31.1 140.19 137.86 0 244.59 140.19 238.4 144.89"/></svg>