<?xml version="1.0" encoding="utf-8"?>
<!-- Generator: Adobe Illustrator 27.5.0, SVG Export Plug-In . SVG Version: 6.00 Build 0)  -->
<svg version="1.1" id="Layer_1" xmlns="http://www.w3.org/2000/svg" xmlns:xlink="http://www.w3.org/1999/xlink" x="0px" y="0px"
	 viewBox="0 0 414.3 321.8" style="enable-background:new 0 0 414.3 321.8;" xml:space="preserve">
<style type="text/css">
	.st0{fill:#346600;}
	.st1{fill:#7F3A00;}
</style>
<g>
	<g>
		<path class="st0" d="M62.5,199.8h3.7l13.1,33.5h-4.2l-3.5-9H57.1l-3.5,9h-4.3L62.5,199.8L62.5,199.8z M58.6,220.4h11.5l-5.7-14.9
			L58.6,220.4z"/>
		<path class="st0" d="M109.8,216.6c0,9.7-6.2,16.8-16.6,16.8h-9.6v-33.5h9.6C103.7,199.8,109.8,206.9,109.8,216.6L109.8,216.6z
			 M105.5,216.6c0-7.1-4.3-12.9-12.5-12.9h-5.4v25.9H93C101.2,229.5,105.5,223.7,105.5,216.6z"/>
		<path class="st0" d="M116.3,199.8h4v33.5h-4V199.8z"/>
		<path class="st0" d="M128.8,199.8h8.7c6.6,0,11.2,3.9,11.2,9.9c0,7.9-7.2,9.4-8.2,9.6l9.3,14H145l-9-13.7h-3.1v13.7h-4
			L128.8,199.8L128.8,199.8z M144.7,209.7c0-3.7-2.4-6.1-6.9-6.1h-4.9v12.2h4.9C142.3,215.8,144.7,213.4,144.7,209.7z"/>
		<path class="st0" d="M186.4,216.6c0,9.7-6.9,17.3-16.6,17.3c-9.7,0-16.6-7.7-16.6-17.3c0-9.7,6.9-17.3,16.6-17.3
			S186.4,206.9,186.4,216.6z M182,216.6c0-7.1-4.9-13.5-12.3-13.5s-12.3,6.4-12.3,13.5c0,7.1,4.9,13.5,12.3,13.5
			S182,223.7,182,216.6z"/>
		<path class="st0" d="M196.3,199.8l18,26.8v-26.8h4v33.5h-4.2l-18-26.8v26.8h-4v-33.5H196.3z"/>
		<path class="st0" d="M252.3,216.6c0,9.7-6.2,16.8-16.6,16.8h-9.6v-33.5h9.6C246.1,199.8,252.3,206.9,252.3,216.6L252.3,216.6z
			 M248,216.6c0-7.1-4.3-12.9-12.5-12.9h-5.4v25.9h5.4C243.7,229.5,248,223.7,248,216.6z"/>
		<path class="st0" d="M267.2,199.8h3.7l13.1,33.5h-4.2l-3.5-9h-14.5l-3.5,9H254L267.2,199.8L267.2,199.8z M263.3,220.4h11.5
			l-5.7-14.9L263.3,220.4z"/>
		<path class="st0" d="M311.5,207c0,0-3.1-3.9-9.2-3.9c-7.3,0-12.3,6.4-12.3,13.5c0,7.1,5,13.5,12.3,13.5c6.1,0,9.7-4.5,9.7-4.5
			l2.7,2.8c0,0-4.6,5.5-12.4,5.5c-9.7,0-16.6-7.7-16.6-17.3c0-9.7,6.9-17.3,16.6-17.3c7.8,0,12,5.1,12,5.1L311.5,207L311.5,207z"/>
		<path class="st0" d="M323.5,215.6l13.6-15.8h5.1l-14.2,16.4l15.8,17.2h-5.5l-14.8-16v16h-4v-33.5h4V215.6L323.5,215.6z"/>
		<path class="st0" d="M356.6,218.3c-4.9-2.3-9.2-4.5-9.2-10.2c0-3.9,3.3-8.8,9.7-8.8c6.4,0,9.5,4.9,9.5,4.9l-3,2.4
			c0,0-2.4-3.5-6.5-3.5c-3.7,0-5.7,2.6-5.7,5c0,3.4,2.9,4.8,7.5,6.8c5.1,2.4,8.3,4.5,8.3,9.9c0,5.4-4.5,9.1-10.4,9.1
			c-7.9,0-10.7-7-10.7-7l3.4-2c0,0,2,5.2,7.3,5.2c3.2,0,6.3-1.8,6.3-5.3C363.1,221.4,360.4,220,356.6,218.3L356.6,218.3z"/>
	</g>
	<g>
		<path class="st1" d="M108.3,247.6l8.4,11.5v-11.5h2.9v16.8H117l-8.4-11.5v11.5h-2.9v-16.8C105.7,247.6,108.3,247.6,108.3,247.6z"
			/>
		<path class="st1" d="M138.5,254.4h6.7v2.7h-6.7v4.5h7.4v2.7h-10.3v-16.8h10.2v2.7h-7.3V254.4L138.5,254.4z"/>
		<path class="st1" d="M176.2,264.9l-5-12.6l-5.1,12.6l-6.6-17.3h3.3l3.6,10.1l3.8-10.1h2.4l3.7,10.1l3.6-10.1h3L176.2,264.9
			L176.2,264.9z"/>
		<path class="st1" d="M223.8,264.3h-2.9v-6.6l-5.7-10.2h3.2l4.1,7.5l4.1-7.5h3l-5.7,10.2L223.8,264.3L223.8,264.3z"/>
		<path class="st1" d="M260,256c0,5-3.6,8.7-8.5,8.7c-4.9,0-8.5-3.7-8.5-8.7c0-4.9,3.6-8.7,8.5-8.7C256.4,247.3,260,251,260,256z
			 M257,256c0-3.2-2.2-5.9-5.6-5.9s-5.6,2.7-5.6,5.9c0,3.2,2.2,6,5.6,6S257,259.2,257,256z"/>
		<path class="st1" d="M275.1,247.6h5.5c3.3,0,5.5,2.2,5.5,5.2c0,2.5-1.3,4.4-3.7,5l4.2,6.5h-3.4l-4-6.3h-1.3v6.3H275L275.1,247.6
			L275.1,247.6z M283.2,252.8c0-1.7-1.2-2.5-3-2.5h-2.3v5h2.3C282.1,255.3,283.2,254.4,283.2,252.8z"/>
		<path class="st1" d="M304.4,255.1l6-7.5h3.6l-6.6,8.2l7.4,8.5H311l-6.6-7.6v7.6h-2.9v-16.8h2.9L304.4,255.1L304.4,255.1z"/>
	</g>
	<rect x="47.5" y="238.8" class="st0" width="323.7" height="3.2"/>
</g>
<g>
	<polygon class="st1" points="334.1,179.3 234.8,66.2 221.8,86.3 215.3,82.1 233.9,53.4 339.9,174.2 	"/>
	<polygon class="st0" points="285.9,179.1 185.4,47 84.8,179.1 78.6,174.4 185.4,34.2 292.1,174.4 	"/>
</g>
</svg>
