<?xml version="1.0" encoding="UTF-8"?><svg id="Layer_1" xmlns="http://www.w3.org/2000/svg" viewBox="0 0 153.36 147.12"><defs><style>.cls-1{fill:#fff;}</style></defs><path class="cls-1" d="M76.68,38.46c-19.35,0-35.1,15.75-35.1,35.1s15.75,35.1,35.1,35.1,35.1-15.75,35.1-35.1-15.75-35.1-35.1-35.1Zm0,5.4c16.43,0,29.7,13.27,29.7,29.7,0,14.94-10.98,27.22-25.31,29.34v-20.76h8.38l1.32-8.51h-9.7v-4.66c0-3.54,1.15-6.68,4.46-6.68h5.32v-7.44c-.93-.12-2.91-.4-6.64-.4-7.8,0-12.37,4.12-12.37,13.5v5.66h-8.02v8.52h8.03v20.68c-14.11-2.31-24.86-14.49-24.86-29.27,0-16.43,13.27-29.7,29.7-29.7Z"/></svg>