<?xml version="1.0" encoding="UTF-8"?><svg id="Layer_1" xmlns="http://www.w3.org/2000/svg" viewBox="0 0 153.36 147.12"><defs><style>.cls-1{fill:#fff;}</style></defs><path class="cls-1" d="M61.96,38.46c-11.22,0-20.38,9.15-20.38,20.38v29.47c0,11.2,9.15,20.36,20.38,20.36h29.47c11.2,0,20.36-9.15,20.36-20.38v-29.45c0-11.22-9.15-20.38-20.38-20.38h-29.45Zm0,5.4h29.45c8.31,0,14.98,6.67,14.98,14.98v29.45c0,8.31-6.67,14.98-14.96,14.98h-29.47c-8.31,0-14.98-6.67-14.98-14.96v-29.47c0-8.31,6.67-14.98,14.98-14.98Zm36.32,5.4c-1.5,0-2.7,1.2-2.7,2.7s1.2,2.7,2.7,2.7,2.7-1.2,2.7-2.7-1.2-2.7-2.7-2.7Zm-21.6,5.4c-10.4,0-18.9,8.5-18.9,18.9s8.5,18.9,18.9,18.9,18.9-8.5,18.9-18.9-8.5-18.9-18.9-18.9Zm0,5.4c7.49,0,13.5,6.01,13.5,13.5s-6.01,13.5-13.5,13.5-13.5-6.01-13.5-13.5,6.01-13.5,13.5-13.5Z"/></svg>