<?xml version="1.0" encoding="UTF-8"?><svg id="Layer_1" xmlns="http://www.w3.org/2000/svg" viewBox="0 0 229.93 178.6"><defs><style>.cls-1{fill:#fff;}</style></defs><g><polygon class="cls-1" points="146.87 94.56 104.98 39.53 63.08 94.56 60.5 92.6 104.98 34.19 149.45 92.6 146.87 94.56"/><polygon class="cls-1" points="166.92 94.65 125.57 47.54 120.16 55.9 117.44 54.14 125.18 42.18 169.36 92.51 166.92 94.65"/></g><g><path class="cls-1" d="M53.78,103.19h1.56l5.45,13.97h-1.76l-1.46-3.77h-6.03l-1.46,3.77h-1.8l5.49-13.97Zm-1.62,8.6h4.79l-2.39-6.21-2.4,6.21Z"/><path class="cls-1" d="M73.5,110.18c0,4.03-2.57,6.99-6.91,6.99h-4.01v-13.97h4.01c4.33,0,6.91,2.95,6.91,6.99Zm-1.8,0c0-2.97-1.8-5.39-5.21-5.39h-2.24v10.78h2.24c3.41,0,5.21-2.42,5.21-5.39Z"/><path class="cls-1" d="M76.18,103.19h1.68v13.97h-1.68v-13.97Z"/><path class="cls-1" d="M81.41,103.19h3.63c2.77,0,4.67,1.64,4.67,4.13,0,3.31-3.01,3.93-3.41,3.99l3.87,5.85h-2.02l-3.77-5.71h-1.3v5.71h-1.68v-13.97Zm6.63,4.13c0-1.54-1.02-2.53-2.89-2.53h-2.06v5.07h2.06c1.88,0,2.89-1,2.89-2.54Z"/><path class="cls-1" d="M105.38,110.18c0,4.03-2.87,7.22-6.91,7.22s-6.91-3.19-6.91-7.22,2.87-7.22,6.91-7.22,6.91,3.19,6.91,7.22Zm-1.8,0c0-2.97-2.06-5.63-5.11-5.63s-5.11,2.66-5.11,5.63,2.06,5.63,5.11,5.63,5.11-2.65,5.11-5.63Z"/><path class="cls-1" d="M109.51,103.19l7.48,11.18v-11.18h1.68v13.97h-1.74l-7.48-11.18v11.18h-1.68v-13.97h1.74Z"/><path class="cls-1" d="M132.86,110.18c0,4.03-2.57,6.99-6.91,6.99h-4.01v-13.97h4.01c4.33,0,6.91,2.95,6.91,6.99Zm-1.8,0c0-2.97-1.8-5.39-5.21-5.39h-2.24v10.78h2.24c3.41,0,5.21-2.42,5.21-5.39Z"/><path class="cls-1" d="M139.05,103.19h1.56l5.45,13.97h-1.76l-1.46-3.77h-6.03l-1.46,3.77h-1.8l5.49-13.97Zm-1.62,8.6h4.79l-2.39-6.21-2.4,6.21Z"/><path class="cls-1" d="M157.51,106.19s-1.3-1.64-3.85-1.64c-3.03,0-5.11,2.66-5.11,5.63s2.08,5.63,5.11,5.63c2.54,0,4.03-1.86,4.03-1.86l1.14,1.16s-1.9,2.29-5.17,2.29c-4.03,0-6.91-3.19-6.91-7.22s2.87-7.22,6.91-7.22c3.27,0,5.01,2.13,5.01,2.13l-1.16,1.1Z"/><path class="cls-1" d="M162.54,109.76l5.65-6.57h2.14l-5.91,6.83,6.57,7.15h-2.28l-6.17-6.67v6.67h-1.68v-13.97h1.68v6.57Z"/><path class="cls-1" d="M176.33,110.88c-2.04-.94-3.83-1.88-3.83-4.25,0-1.64,1.36-3.67,4.03-3.67s3.97,2.04,3.97,2.04l-1.26,1.02s-.98-1.46-2.71-1.46c-1.54,0-2.36,1.08-2.36,2.08,0,1.42,1.2,1.98,3.11,2.85,2.14,.98,3.47,1.88,3.47,4.13s-1.88,3.79-4.33,3.79c-3.31,0-4.45-2.91-4.45-2.91l1.4-.84s.84,2.16,3.05,2.16c1.34,0,2.62-.76,2.62-2.2s-1.16-2.02-2.71-2.73Z"/></g><g><path class="cls-1" d="M72.86,123.09l3.49,4.81v-4.81h1.2v6.99h-1.08l-3.49-4.8v4.8h-1.2v-6.99h1.08Z"/><path class="cls-1" d="M85.43,125.93h2.79v1.14h-2.79v1.88h3.09v1.14h-4.29v-6.99h4.23v1.14h-3.03v1.7Z"/><path class="cls-1" d="M101.17,130.32l-2.1-5.24-2.13,5.24-2.75-7.22h1.36l1.48,4.19,1.59-4.19h.99l1.56,4.19,1.52-4.19h1.25l-2.75,7.22Z"/><path class="cls-1" d="M120.97,130.08h-1.2v-2.75l-2.38-4.23h1.32l1.71,3.12,1.71-3.12h1.24l-2.39,4.23v2.75Z"/><path class="cls-1" d="M136.05,126.59c0,2.07-1.5,3.61-3.53,3.61s-3.53-1.55-3.53-3.61,1.5-3.61,3.53-3.61,3.53,1.55,3.53,3.61Zm-1.22,0c0-1.35-.91-2.47-2.32-2.47s-2.32,1.13-2.32,2.47,.91,2.48,2.32,2.48,2.32-1.13,2.32-2.48Z"/><path class="cls-1" d="M142.34,123.09h2.3c1.39,0,2.31,.9,2.31,2.18,0,1.05-.56,1.85-1.56,2.1l1.75,2.71h-1.4l-1.66-2.63h-.55v2.63h-1.2v-6.99Zm3.39,2.18c0-.69-.48-1.04-1.25-1.04h-.95v2.08h.95c.77,0,1.25-.35,1.25-1.04Z"/><path class="cls-1" d="M154.56,126.23l2.5-3.13h1.5l-2.73,3.43,3.07,3.55h-1.59l-2.75-3.15v3.15h-1.2v-6.99h1.2v3.13Z"/></g><rect class="cls-1" x="47.54" y="119.43" width="134.86" height="1.32"/></svg>