<?xml version="1.0" encoding="UTF-8"?><svg id="Layer_1" xmlns="http://www.w3.org/2000/svg" viewBox="0 0 286.2 166.73"><defs><style>.cls-1{fill:#fff;}</style></defs><g><polygon class="cls-1" points="112.28 113.73 64.23 50.6 16.17 113.73 13.22 111.48 64.23 44.47 115.24 111.48 112.28 113.73"/><polygon class="cls-1" points="135.28 113.83 87.85 59.79 81.65 69.38 78.53 67.36 87.4 53.64 138.08 111.38 135.28 113.83"/></g><g><path class="cls-1" d="M130.59,61.79h1.62l5.68,14.57h-1.83l-1.52-3.93h-6.29l-1.52,3.93h-1.87l5.72-14.57Zm-1.69,8.97h5l-2.5-6.47-2.5,6.47Z"/><path class="cls-1" d="M151.16,69.07c0,4.2-2.69,7.28-7.2,7.28h-4.18v-14.57h4.18c4.52,0,7.2,3.08,7.2,7.29Zm-1.87,0c0-3.1-1.87-5.62-5.43-5.62h-2.33v11.24h2.33c3.56,0,5.43-2.52,5.43-5.62Z"/><path class="cls-1" d="M153.95,61.79h1.75v14.57h-1.75v-14.57Z"/><path class="cls-1" d="M159.4,61.79h3.79c2.89,0,4.87,1.71,4.87,4.31,0,3.46-3.14,4.1-3.56,4.16l4.04,6.1h-2.1l-3.93-5.95h-1.35v5.95h-1.75v-14.57Zm6.91,4.31c0-1.6-1.06-2.64-3.02-2.64h-2.14v5.29h2.14c1.96,0,3.02-1.04,3.02-2.64Z"/><path class="cls-1" d="M184.39,69.07c0,4.2-3,7.53-7.2,7.53s-7.2-3.33-7.2-7.53,3-7.53,7.2-7.53,7.2,3.33,7.2,7.53Zm-1.87,0c0-3.1-2.14-5.87-5.33-5.87s-5.33,2.77-5.33,5.87,2.14,5.87,5.33,5.87,5.33-2.77,5.33-5.87Z"/><path class="cls-1" d="M188.7,61.79l7.8,11.66v-11.66h1.75v14.57h-1.81l-7.8-11.66v11.66h-1.75v-14.57h1.81Z"/><path class="cls-1" d="M213.05,69.07c0,4.2-2.69,7.28-7.2,7.28h-4.18v-14.57h4.18c4.52,0,7.2,3.08,7.2,7.29Zm-1.87,0c0-3.1-1.87-5.62-5.43-5.62h-2.33v11.24h2.33c3.56,0,5.43-2.52,5.43-5.62Z"/><path class="cls-1" d="M219.5,61.79h1.62l5.68,14.57h-1.83l-1.52-3.93h-6.29l-1.52,3.93h-1.87l5.72-14.57Zm-1.69,8.97h5l-2.5-6.47-2.5,6.47Z"/><path class="cls-1" d="M238.75,64.91s-1.35-1.71-4.02-1.71c-3.16,0-5.33,2.77-5.33,5.87s2.16,5.87,5.33,5.87c2.64,0,4.2-1.94,4.2-1.94l1.19,1.21s-1.98,2.39-5.39,2.39c-4.2,0-7.2-3.33-7.2-7.53s3-7.53,7.2-7.53c3.41,0,5.22,2.23,5.22,2.23l-1.21,1.14Z"/><path class="cls-1" d="M244,68.63l5.89-6.85h2.23l-6.16,7.12,6.85,7.45h-2.37l-6.43-6.95v6.95h-1.75v-14.57h1.75v6.85Z"/><path class="cls-1" d="M258.38,69.8c-2.12-.98-4-1.96-4-4.43,0-1.71,1.42-3.83,4.2-3.83s4.14,2.12,4.14,2.12l-1.31,1.06s-1.02-1.52-2.83-1.52c-1.6,0-2.46,1.12-2.46,2.17,0,1.48,1.25,2.06,3.25,2.98,2.23,1.02,3.62,1.96,3.62,4.31s-1.96,3.96-4.52,3.96c-3.46,0-4.64-3.04-4.64-3.04l1.46-.87s.87,2.25,3.18,2.25c1.39,0,2.73-.79,2.73-2.29s-1.21-2.1-2.83-2.85Z"/></g><g><path class="cls-1" d="M150.48,82.54l3.64,5.02v-5.02h1.25v7.28h-1.12l-3.64-5.01v5.01h-1.25v-7.28h1.12Z"/><path class="cls-1" d="M163.59,85.5h2.91v1.19h-2.91v1.96h3.23v1.19h-4.47v-7.28h4.41v1.19h-3.16v1.77Z"/><path class="cls-1" d="M180,90.08l-2.18-5.46-2.22,5.46-2.87-7.53h1.42l1.54,4.37,1.65-4.37h1.03l1.62,4.37,1.58-4.37h1.3l-2.87,7.53Z"/><path class="cls-1" d="M200.66,89.83h-1.25v-2.87l-2.49-4.41h1.37l1.78,3.26,1.78-3.26h1.29l-2.49,4.41v2.87Z"/><path class="cls-1" d="M216.38,86.18c0,2.15-1.56,3.77-3.68,3.77s-3.68-1.61-3.68-3.77,1.56-3.77,3.68-3.77,3.68,1.61,3.68,3.77Zm-1.27,0c0-1.4-.95-2.58-2.41-2.58s-2.42,1.18-2.42,2.58,.95,2.58,2.42,2.58,2.41-1.18,2.41-2.58Z"/><path class="cls-1" d="M222.94,82.54h2.39c1.45,0,2.42,.94,2.42,2.27,0,1.09-.58,1.92-1.62,2.19l1.82,2.83h-1.46l-1.73-2.75h-.57v2.75h-1.25v-7.28Zm3.54,2.27c0-.72-.5-1.08-1.3-1.08h-.99v2.17h.99c.8,0,1.3-.36,1.3-1.08Z"/><path class="cls-1" d="M235.69,85.81l2.6-3.27h1.56l-2.85,3.58,3.21,3.71h-1.65l-2.86-3.29v3.29h-1.25v-7.28h1.25v3.27Z"/></g><rect class="cls-1" x="124.08" y="78.68" width="140.63" height="1.47"/></svg>