<?xml version="1.0" encoding="UTF-8"?><svg id="Layer_1" xmlns="http://www.w3.org/2000/svg" viewBox="0 0 153.36 147.12"><defs><style>.cls-1{fill:#fff;}</style></defs><path class="cls-1" d="M121.96,45.01c-.78-.93-2.1-1.22-3.19-.7-.18,.08-.36,.14-.56,.2,.82-1.33,1.43-2.63,1.84-3.94,.34-1.06-.03-2.24-.91-2.94-.88-.69-2.11-.77-3.05-.19-2.79,1.65-5.93,2.89-9.35,3.67-3.87-3.47-8.64-5.38-13.48-5.38-11.26,0-20.42,9.16-20.42,20.42,0,.3,.03,.6,.07,.89-12.46-1.48-23.54-7.5-31.31-17.03-.56-.7-1.43-1.07-2.32-1.02-.9,.06-1.7,.57-2.14,1.35-1.81,3.11-2.77,6.65-2.77,10.24s.92,6.77,2.68,9.86c-.48-.02-1.02,.11-1.47,.38-.8,.48-1.31,1.36-1.32,2.31v.22c0,5.93,2.72,11.59,7.35,15.49-.17,.12-.32,.26-.46,.42-.61,.7-.82,1.69-.55,2.59,1.88,5.86,6.34,10.49,12.12,12.7-4.67,2.41-9.83,3.67-15.03,3.67-1.37,0-2.64-.07-3.87-.22-1.27-.17-2.48,.58-2.9,1.77-.43,1.2,.05,2.55,1.11,3.2,8.58,5.5,18.47,8.41,28.61,8.41,15.6,0,29.63-6.16,39.49-17.35,8.69-9.86,13.67-22.91,13.67-35.81,0-.32-.02-.64-.03-.96v-.13c3.41-2.67,6.23-5.65,8.37-8.86,.68-1,.61-2.34-.17-3.27Zm-13.56,13.22c0,11.58-4.49,23.32-12.32,32.2-6.26,7.1-17.48,15.56-35.44,15.56-5.69,0-11.25-1.01-16.57-3,6.42-1.05,12.34-3.6,17.3-7.49,.88-.7,1.23-1.89,.88-2.96-.36-1.07-1.36-1.81-2.49-1.85-4.86-.09-9.25-2.55-12-6.67,1.43-.08,2.81-.31,4.14-.67,1.19-.35,1.99-1.45,1.95-2.68-.04-1.24-.91-2.29-2.14-2.55-5.5-1.11-9.79-5.27-11.28-10.78,1.29,.37,2.8,.7,4.41,.75,1.23,.07,2.35-.69,2.73-1.87,.38-1.18-.08-2.46-1.11-3.1-4.19-2.8-6.69-7.49-6.69-12.53,0-1.28,.22-2.57,.69-4.04,9.5,9.89,22.03,15.69,35.43,16.36,.83,.05,1.66-.31,2.21-.95,.54-.65,.76-1.52,.57-2.34-.28-1.2-.43-2.36-.43-3.45,0-8.28,6.74-15.02,15.02-15.02,4.14,0,8.14,1.74,11,4.79,.65,.67,1.62,.96,2.51,.76,1.16-.23,2.31-.51,3.44-.85-.6,.51-1.22,.96-1.87,1.35-1.23,.6-1.82,2.03-1.36,3.32,.44,1.29,1.78,2.05,3.05,1.76,.59-.07,1.15-.19,1.7-.34-.74,.64-1.5,1.24-2.28,1.81-.75,.55-1.16,1.43-1.1,2.36,.03,.71,.05,1.42,.05,2.14Z"/></svg>