<?xml version="1.0" encoding="UTF-8"?><svg id="Layer_1" xmlns="http://www.w3.org/2000/svg" viewBox="0 0 313.3 364.49"><path d="m33.84,258.83h-2.52l-5.4-.36-1.8-1.08-4.32-.72-4.68-.72-1.44-1.8-7.56-3.96-1.44-2.16-4.32-7.2,1.08-3.6-1.44-3.6.72-3.6.36-3.96,4.32-2.52,4.32.36,2.16.72,3.6.36,5.76.72h1.8l8.28.36,3.24-.72h4.32l2.16-.36,3.96-.36,5.4-.72,2.16-.36,3.96-.72,3.24-.72,3.6-1.08,11.52-2.88,3.6-1.08,2.16-.72,3.96-1.44,2.52-1.08,5.04-1.8,2.16-.72,2.88-1.44,4.32-1.44,3.96-1.44,1.8-2.16,3.96-1.44,2.88-1.44,3.24-1.44,3.6-1.8,2.88-1.8,2.16-1.8,4.32-2.16,2.16-2.16,4.68-1.44,1.8-2.52,3.6-2.16,3.24-1.8,2.16-2.16,3.6-2.52,5.04-4.32,2.52-2.88.72-2.88,2.52-2.52,3.6-2.52,3.24-6.12.72-2.88,1.8-3.96-1.8-2.88-2.52-1.8-3.6-1.44-6.48-2.16-5.4-1.08-1.8-1.8-3.96-.72-2.88-1.08-3.96-1.8-2.88-.72-3.6-1.08-3.6-1.8-3.24-1.44-3.6-.72-5.04-1.8-1.44-1.44-3.24-1.44-5.04-1.44-1.8-1.08-5.04-1.8-3.6-2.16-3.24-1.44-3.24-2.16-1.08-1.8-5.04-2.52-2.52-2.52-1.44-2.16-3.24-2.88-1.08-2.88-3.96-2.52.36-2.88-1.8-3.24-2.16-3.6-1.44-3.24-.36-3.6-.72-3.24-1.44-3.6.72-3.6-1.08-3.96,1.08-3.6-.36-7.2.72-3.24-.72-3.6,1.44-3.6.72-3.24,3.24-2.88.72-2.88,2.52-3.24,2.16-2.16,5.4-4.32,4.68-2.88,1.8-1.8,4.32-1.8,1.8-2.52,3.96-1.44,2.52-2.16,3.96-1.8,1.44-1.8,3.96-1.8,4.32-2.16,1.8-1.44,5.4-1.44,6.84-3.24,6.48-.36,3.6.36,5.04.72,3.96.72,2.52.72,3.6.72,5.04.72,1.8.36,8.64,1.44,2.88,1.08,3.96.36,2.16,1.08,4.32,1.08,3.24.72,3.6,1.08,4.68,3.6,2.16,2.88,5.04,6.12,1.44,3.6.36,3.24-.72,3.24.72,3.24,2.16,3.24-1.08,7.2-2.88,2.88-6.84,1.8-2.16-.36h-3.96l-3.6-.36-2.52-.72-3.6-1.08-4.68-5.04-.72-3.6v-3.96l-1.44-3.6-.72-3.96-1.8-5.04-5.4,1.08-5.4,1.44-3.6,1.08-2.16.72-3.6,1.8-4.32,1.08-2.88,1.44-2.52,1.08-6.48,2.88-3.96,1.8-2.52,1.44-3.6,1.8-2.16,2.16-3.6,1.8-2.88,2.16-3.96,1.8-2.16,2.52-3.24,1.8-1.08,2.52-3.24,3.24-2.16,2.88-2.88,2.88-.36,2.88-2.16,3.24,1.08,7.2,2.16,2.88,2.52,2.52,1.8,3.24,1.08,2.16,3.6,2.16,4.68,2.16,2.16,2.16,3.24,1.44,2.88,2.16,3.96,1.44,2.16,1.44,3.6,1.8,7.2,2.52,3.96,1.44,2.16,1.8,5.04,1.08,2.16,1.44,4.32,1.44,4.32.72,3.6,1.44,2.52,1.08,4.32,1.44,3.24,1.44,1.8,1.44,3.96,1.08,7.92,3.24,1.44,2.16,2.88,2.52,2.52,2.52,2.52,2.88,1.8,2.88,1.8,3.24,2.88,3.24.36,2.52,3.96,6.12,1.8,3.6,2.16,2.88v7.56l-2.88,6.48-2.88,3.6-1.8,2.88-1.08,3.24-3.96,2.88-1.44,2.52-2.52,2.88-2.16,2.88-6.84,4.68-1.44,2.52-2.52,2.52-2.52,2.16-3.6,2.52-3.24,1.8-1.44,2.16-4.32,2.16-1.44,2.52-4.68,1.8-3.6,2.16-1.08,1.44-3.24,2.52-4.32,1.8-3.6,1.8-2.88,1.08-3.24,1.8-3.6,2.16-2.88,1.08-2.88,1.44-3.24,1.8-4.32,1.08-3.6,1.44-1.44,1.44-4.68,1.8-3.6,1.08-3.24,1.08-3.24,1.44-3.24,1.08-3.6,1.08-7.56,1.8-2.88.72-3.24,1.44-3.24.72-4.68.72-2.52.72h-4.68l-2.88,1.08h-5.04l-3.24.72h-15.12l-2.88-.36Z"/><path d="m82.18,109.61h39.96l74.88,207.36h.72l77.76-207.36h37.8l-100.44,254.88h-32.4L82.18,109.61Z"/></svg>